<svg width="133" height="83" viewBox="0 0 133 83" fill="none" xmlns="http://www.w3.org/2000/svg">
<path d="M84.7474 34.337C84.7474 45.055 75.8137 48 66.1218 48C58.9886 48 52.8495 43.2934 50.1051 36.5354C46.7625 29.7091 47.0038 24.367 47.0038 19.6773C48.898 23.2514 50.5786 23.7726 51.1821 23.5866C50.2072 22.8884 48.4244 19.9285 49.093 13.6738C49.7615 7.41898 55.6958 1.81501 57.5064 0C59.5955 10.0524 62.1848 12.6965 69.0094 16.1869C74.4689 18.9791 76.948 23.7726 77.5051 25.8204C79.5108 24.7035 79.1363 21.2595 78.6983 19.6773C82.4041 23.2354 84.7474 28.4836 84.7474 34.337Z" fill="#673AB7"/>
<path d="M71.9055 15.3236C72.8992 15.9469 74.3632 17.5302 75.0916 18.2599C75.0704 17.7325 74.5427 14.2311 73.3674 12.9579C72.0107 11.4885 70.5991 11.5567 67.9302 9.51016C67.2344 8.97647 65.0494 8.03772 64.5557 5.96875C64.3382 8.448 64.9482 9.96168 65.406 10.5673C67.1704 12.9014 68.9902 13.4949 71.9055 15.3236Z" fill="#673AB7"/>
<path d="M55.366 23.1799C55.3922 23.4075 55.424 23.6596 55.4574 23.8958C55.4574 23.8958 55.6685 23.9564 55.972 24.0581C56.2771 24.1439 56.7008 24.2492 57.1085 24.3529C57.5091 24.448 57.9343 24.5373 58.2425 24.5911L58.7561 24.6811C58.7561 24.6811 57.9867 24.7433 57.1958 24.7792C56.8004 24.7971 56.4065 24.7992 56.1168 24.8034C55.82 24.7986 55.6187 24.8034 55.6187 24.8034L55.7229 25.3035C55.7625 25.4761 55.8036 25.6327 55.8519 25.798C56.3593 27.6952 57.3253 29.9179 58.7176 32.0533C58.7176 32.0533 58.9898 32.0636 59.4068 32.0717C59.6152 32.0759 59.8641 32.0759 60.113 32.0759H60.1135C60.3713 32.0686 60.6449 32.0631 60.9186 32.0573H60.9187C61.4677 32.0301 61.9921 32.0085 62.3978 31.9675C62.7948 31.9336 63.0629 31.9033 63.0629 31.9033C63.0629 31.9033 62.8467 31.9788 62.5057 32.0984C62.1647 32.2181 61.7148 32.3835 61.2593 32.5242C60.3554 32.8144 59.4228 33.0696 59.4228 33.0696C61.1679 35.5445 63.4661 37.7836 65.831 39.4989L66.3519 39.8465C66.5034 39.9416 66.6621 40.0453 66.8047 40.1474C66.8797 40.203 66.9564 40.2425 67.0313 40.2979C67.099 40.3446 67.1597 40.3826 67.2275 40.4294C68.1606 40.0858 69.3013 39.674 70.2154 39.3606C70.674 39.188 71.0715 39.0658 71.3545 38.9646C71.6375 38.8635 71.8115 38.808 71.8115 38.808C71.8115 38.808 71.5589 38.9282 71.187 39.1173C70.8152 39.3062 70.3171 39.5553 69.8261 39.8131C68.837 40.32 67.871 40.8371 67.871 40.8371C68.2114 41.055 68.5535 41.2567 68.8883 41.4499C69.2231 41.6429 69.5421 41.8345 69.8625 42.0101C70.5035 42.3613 71.1172 42.6619 71.6704 42.9242C72.2394 43.1882 72.7669 43.3838 73.2439 43.5184C73.7122 43.6601 74.1479 43.7264 74.5186 43.7141C75.4949 43.6719 76.3175 43.6391 77.0057 43.5851C77.3534 43.5625 77.662 43.528 77.946 43.4993H77.9462C78.2302 43.4706 78.4735 43.446 78.6939 43.411C79.5649 43.2944 79.9464 43.1706 79.9464 43.1706L80.5473 42.4413C80.5473 42.4413 80.5925 42.1405 80.5996 41.651C80.6069 41.4107 80.5956 41.1124 80.5873 40.7821C80.5719 40.4431 80.5508 40.0795 80.4922 39.6881C80.4409 39.3055 80.3609 38.888 80.2575 38.4603C80.1544 38.0324 80.012 37.5928 79.8364 37.1661C79.6624 36.7234 79.4461 36.3008 79.1894 35.8822C79.0645 35.6772 78.9238 35.4709 78.7656 35.2787C78.6074 35.0866 78.4494 34.8946 78.2736 34.7168C78.1355 34.5669 77.9815 34.4154 77.8202 34.2552C77.8202 34.2552 77.8084 35.2906 77.7735 36.3156C77.7632 36.8368 77.7458 37.3495 77.7247 37.7331C77.7036 38.1167 77.695 38.373 77.695 38.373C77.695 38.373 77.6462 38.0468 77.5562 37.5641C77.4663 37.0813 77.3353 36.4419 77.2131 35.7954C77.0822 35.156 76.9527 34.5007 76.847 34.0164C76.7412 33.5322 76.6677 33.2117 76.6677 33.2117C76.3118 32.9041 75.9415 32.5789 75.5322 32.242C75.1214 31.9211 74.6961 31.5827 74.2478 31.234C74.0229 31.0676 73.7994 30.8852 73.5674 30.7101C73.3798 30.5715 73.1939 30.4168 72.9994 30.2694C72.9099 30.1966 72.8047 30.1222 72.7154 30.0492C72.6259 29.9763 72.5295 29.8946 72.44 29.8216C72.2613 29.6758 72.0667 29.5284 71.8808 29.3739C71.8808 29.3739 71.7072 30.0883 71.5638 30.8215C71.4966 31.1847 71.4207 31.555 71.3698 31.8312C71.3276 32.1004 71.2933 32.2898 71.2933 32.2898C71.2933 32.2898 71.2906 32.2334 71.2841 32.1363C71.2773 32.0393 71.2665 31.9017 71.2589 31.7321C71.2348 31.4003 71.2126 30.9644 71.2064 30.5299C71.1946 30.3199 71.1915 30.1026 71.1956 29.8941C71.2069 29.6943 71.2096 29.5017 71.2089 29.3409C71.2167 29.0124 71.2207 28.8038 71.2207 28.8038C71.0277 28.6406 70.8434 28.47 70.6502 28.3068C70.5609 28.2338 70.4643 28.1521 70.3677 28.0704C70.2712 27.9888 70.1906 27.9086 70.094 27.8271L69.2194 27.0674C69.146 26.996 69.0637 26.9318 68.9903 26.8606C68.9082 26.7963 68.8348 26.725 68.7613 26.6536C68.6217 26.5195 68.466 26.3839 68.3176 26.2571C68.178 26.1231 68.0382 25.989 67.897 25.8708C67.7557 25.7528 67.6145 25.6346 67.4892 25.5181C67.2299 25.2922 66.969 25.0821 66.7384 24.891C66.499 24.7071 66.2655 24.5479 66.062 24.4078C65.9105 24.3127 65.7375 24.1915 65.5484 24.0689C65.3609 23.9301 65.1663 23.7827 64.9572 23.6179C64.9572 23.6179 64.8752 23.8028 64.7504 24.0961C64.6342 24.3821 64.4669 24.7838 64.3241 25.1797C64.1726 25.5828 64.0212 25.986 63.9266 26.2982C63.8249 26.6018 63.7643 26.8128 63.7643 26.8128C63.7643 26.8128 63.7705 26.7492 63.7726 26.6448C63.7833 26.5334 63.7813 26.3887 63.807 26.2063C63.8326 26.024 63.8527 25.8171 63.8742 25.5942V25.5941C63.903 25.38 63.9261 25.1412 63.9651 24.9038C64.0345 24.4365 64.1022 23.9851 64.1839 23.6395C64.264 23.3098 64.3102 23.0813 64.3102 23.0813C63.4875 22.3669 62.5749 21.4189 61.7819 20.3138C61.6759 20.1672 61.577 20.0294 61.4781 19.8916L61.4774 19.8905C61.3782 19.7524 61.2879 19.607 61.1975 19.4618H61.1975L61.0583 19.2394L60.9278 19.0098C60.839 18.8485 60.7486 18.7031 60.6669 18.5507C60.3403 17.9405 60.0486 17.3017 59.8277 16.6777C59.3647 15.7003 58.0176 13.4217 57.9864 12.8066L57.1603 14.1859C57.0827 14.323 57.0052 14.4601 56.9189 14.6045C56.8326 14.7488 56.7695 14.9034 56.6904 15.0564C56.6113 15.2094 56.5307 15.3784 56.4588 15.5402C56.3869 15.7019 56.3222 15.8725 56.2487 16.0502C56.1753 16.2278 56.1178 16.4071 56.0515 16.5935C56.0012 16.7815 55.9349 16.9679 55.8759 17.1631C55.8168 17.3581 55.7737 17.5548 55.7218 17.7588C55.7038 17.8614 55.67 17.9626 55.652 18.0654C55.6253 18.1753 55.6073 18.278 55.5893 18.3806C55.5447 18.5934 55.5087 18.7987 55.4712 19.0201C55.4337 19.2414 55.405 19.4555 55.3834 19.6786L55.3511 20.0129C55.3475 20.1329 55.3367 20.2444 55.3259 20.3558C55.3203 20.5804 55.3059 20.8119 55.2915 21.0435L55.2961 21.743C55.2997 21.8719 55.3049 21.9848 55.3013 22.105C55.2977 22.2253 55.31 22.347 55.3151 22.46C55.3239 22.7019 55.3413 22.9366 55.366 23.1799Z" fill="white"/>
<path d="M84.4895 47.3843C84.5152 47.4512 84.5353 47.4932 84.5353 47.4932C84.2086 47.1322 83.8574 46.7768 83.5045 46.4374C83.3201 46.2669 83.1445 46.0892 82.976 45.9202C82.8004 45.7424 82.6233 45.5807 82.4548 45.4118L81.2227 44.3463L80.198 43.4757C79.5047 42.9185 78.8361 42.3556 78.1715 41.8333C75.5076 39.7195 73.007 37.9109 70.6935 36.3291C70.1208 35.9362 69.557 35.5362 69.0001 35.1448L68.9993 35.1442C68.73 34.9415 68.4607 34.7389 68.1985 34.5449C68.1308 34.4983 68.0717 34.4443 68.0039 34.3975C67.9449 34.3437 67.877 34.2969 67.8181 34.243C67.6999 34.1351 67.5731 34.0345 67.4461 33.9339C66.456 33.1229 65.5629 32.3053 64.7741 31.4898C63.9852 30.6743 63.2832 29.8751 62.6607 29.0838C62.3531 28.6926 62.0701 28.2954 61.7928 27.9231C61.6505 27.7327 61.5242 27.5436 61.3978 27.3546C61.2787 27.1745 61.1436 26.9926 61.0332 26.8052C60.099 25.3327 59.4406 23.9995 58.965 22.8528C58.4823 21.6973 58.1895 20.7369 57.9897 19.9784L57.9897 19.9783C57.9445 19.7812 57.905 19.6086 57.8567 19.4432C57.8084 19.2779 57.7833 19.1227 57.7566 18.9836C57.696 18.6965 57.6451 18.4747 57.623 18.2878C57.5629 17.9123 57.5393 17.7412 57.5393 17.7412C57.7571 18.3972 58.0837 19.5053 58.6332 20.8843C58.7062 21.044 58.7776 21.2196 58.8561 21.404C58.8875 21.4955 58.9347 21.5884 58.966 21.6799C59.0133 21.7727 59.0446 21.8641 59.0919 21.9571C59.1864 22.143 59.2721 22.3362 59.3579 22.5292C59.4596 22.7239 59.5526 22.9256 59.6542 23.1203C59.7472 23.3222 59.8648 23.5183 59.9737 23.7217C60.0826 23.925 60.1914 24.1285 60.3162 24.3333C60.441 24.5383 60.5643 24.7591 60.6891 24.9641C60.8298 25.1704 60.9618 25.384 61.0938 25.5978H61.0938C61.6464 26.4467 62.2699 27.3105 62.9586 28.1646C63.6632 29.0201 64.4172 29.8643 65.2377 30.6831C66.0585 31.5016 66.9387 32.2858 67.8626 33.0341C68.7778 33.7895 69.7572 34.4627 70.7366 35.136C72.7374 36.4625 74.6612 37.8379 76.4147 39.1485C78.1664 40.475 79.7389 41.744 81.0459 42.8506L83.3382 44.9188C83.3382 44.9188 83.4182 45.0871 83.54 45.324C83.6529 45.5679 83.8076 45.8802 83.9606 46.2083C84.1152 46.5205 84.2594 46.856 84.3653 47.0912C84.4181 47.2087 84.4566 47.3088 84.4895 47.3843Z" fill="#673AB7"/>
<path d="M0 78.3196V77.334H0.78107C1.05379 77.334 1.27696 77.2658 1.45056 77.1294C1.63653 76.9931 1.72951 76.6583 1.72951 76.1251V67.1615C1.72951 66.6656 1.63653 66.3556 1.45056 66.2316C1.26459 66.0952 1.04143 66.0271 0.78107 66.0271H0V65.0414H6.13698C8.19501 65.0414 9.8068 65.5807 10.9722 66.6594C12.1376 67.7379 12.7203 69.3311 12.7203 71.4387C12.7203 72.7902 12.4723 73.9865 11.9764 75.0279C11.4805 76.057 10.7428 76.8629 9.76338 77.4455C8.79634 78.0283 7.58754 78.3196 6.13698 78.3196H0ZM5.70925 77.1666C6.98621 77.1666 7.94711 76.6583 8.59177 75.6416C9.2489 74.6127 9.57741 73.2117 9.57741 71.4387C9.57741 69.6659 9.2489 68.3455 8.59177 67.4776C7.94711 66.6098 6.99244 66.1758 5.72785 66.1758H4.66783V77.1666H5.70925ZM14.1076 78.3196V77.334H14.1634C14.585 77.334 14.9259 77.2596 15.1862 77.1108C15.4591 76.9496 15.5954 76.5777 15.5954 75.995V70.6019C15.5954 70.0564 15.4714 69.7092 15.2234 69.5604C14.9879 69.4117 14.6655 69.3373 14.2564 69.3373H14.2006V68.3516H17.9572L18.3291 69.8022H18.4221C18.6701 69.2443 18.98 68.829 19.3519 68.5562C19.7239 68.2711 20.288 68.1285 21.0443 68.1285C22.4701 68.1285 23.1829 68.6306 23.1829 69.6348C23.1829 70.2052 22.9722 70.6515 22.5506 70.9738C22.1415 71.2838 21.565 71.4387 20.8211 71.4387C20.8211 70.9305 20.7592 70.5461 20.6351 70.2857C20.5112 70.0254 20.2694 69.8952 19.9099 69.8952C19.5876 69.8952 19.3272 70.0068 19.1288 70.2299C18.9304 70.4531 18.7817 70.732 18.6825 71.0668C18.5833 71.3892 18.5151 71.7177 18.4779 72.0524C18.4407 72.3872 18.4221 72.66 18.4221 72.8707V76.088C18.4221 76.6335 18.5461 76.9806 18.794 77.1294C19.042 77.2658 19.3519 77.334 19.7239 77.334H20.319V78.3196H14.1076ZM26.8634 78.5056C26.0452 78.5056 25.3508 78.2577 24.7806 77.7617C24.2227 77.2658 23.9437 76.5033 23.9437 75.4743C23.9437 74.47 24.2908 73.7261 24.9851 73.2426C25.6794 72.7591 26.7208 72.4926 28.1094 72.443L29.6344 72.3872V71.3643C29.6344 70.7445 29.5661 70.2362 29.4298 69.8394C29.3058 69.4427 28.9896 69.2443 28.4814 69.2443C28.0102 69.2443 27.6817 69.4365 27.4957 69.8208C27.3221 70.1927 27.2354 70.6701 27.2354 71.2528C26.4046 71.2528 25.7786 71.1598 25.3571 70.9738C24.9355 70.7878 24.7248 70.4656 24.7248 70.0068C24.7248 69.5481 24.8983 69.1824 25.2455 68.9095C25.5926 68.6368 26.0575 68.4385 26.6403 68.3144C27.2229 68.1781 27.8614 68.1099 28.5557 68.1099C29.8575 68.1099 30.8307 68.3455 31.4755 68.8166C32.1325 69.2877 32.4611 70.106 32.4611 71.2714V76.0136C32.4611 76.5219 32.5416 76.869 32.7029 77.055C32.864 77.241 33.1553 77.334 33.5769 77.334H33.6513V78.3196H30.1923L29.8017 77.0364H29.6344C29.3615 77.3711 29.1012 77.6501 28.8533 77.8733C28.6177 78.0841 28.3449 78.2391 28.035 78.3382C27.725 78.4498 27.3345 78.5056 26.8634 78.5056ZM27.8863 77.148C28.4193 77.148 28.8408 76.931 29.1508 76.4971C29.4731 76.0632 29.6344 75.4867 29.6344 74.7676V73.3728L28.7975 73.4286C28.0536 73.4658 27.5391 73.6642 27.254 74.0237C26.9688 74.3709 26.8262 74.8792 26.8262 75.5486C26.8262 76.6149 27.1796 77.148 27.8863 77.148ZM38.6284 82.7828C35.7273 82.7828 34.2767 81.9213 34.2767 80.1979C34.2767 79.5408 34.4936 79.0325 34.9276 78.6729C35.3616 78.3135 35.9814 78.1027 36.7873 78.0406C36.4526 77.9043 36.1426 77.7059 35.8575 77.4455C35.5723 77.1728 35.4297 76.8195 35.4297 76.3855C35.4297 75.9764 35.5847 75.6169 35.8946 75.3069C36.2046 74.997 36.6013 74.7056 37.0848 74.4328C36.5393 74.2345 36.0868 73.8935 35.7273 73.41C35.3677 72.9265 35.188 72.3066 35.188 71.5503C35.188 70.4593 35.5041 69.6162 36.1364 69.0211C36.7687 68.4137 37.7481 68.1099 39.0747 68.1099C39.5087 68.1099 39.9178 68.1657 40.3021 68.2773C40.6864 68.3888 41.015 68.5252 41.2877 68.6864C41.6101 68.3269 41.92 68.0665 42.2176 67.9053C42.5151 67.7318 42.8499 67.645 43.2218 67.645C43.6682 67.645 44.0029 67.7504 44.2261 67.9611C44.4492 68.1719 44.5608 68.4199 44.5608 68.705C44.5608 68.9778 44.4678 69.2257 44.2818 69.4489C44.0959 69.6597 43.7488 69.765 43.2404 69.765C43.2404 69.5171 43.166 69.3249 43.0173 69.1885C42.8685 69.0522 42.7073 68.9839 42.5337 68.9839C42.2858 68.9839 42.0812 69.0522 41.92 69.1885C42.168 69.4613 42.3787 69.8084 42.5523 70.2299C42.7383 70.6515 42.8313 71.0916 42.8313 71.5503C42.8313 72.4926 42.5275 73.2737 41.92 73.8935C41.3126 74.5011 40.3641 74.8048 39.0747 74.8048C38.9383 74.8048 38.7523 74.7986 38.5168 74.7862C38.2813 74.7738 38.1077 74.7614 37.9961 74.749C37.8225 74.8234 37.6676 74.9474 37.5312 75.1209C37.3948 75.2822 37.3266 75.4743 37.3266 75.6974C37.3266 75.8959 37.4072 76.0446 37.5684 76.1437C37.7295 76.243 37.9403 76.2925 38.2007 76.2925H40.4509C41.6906 76.2925 42.5958 76.5467 43.166 77.055C43.7363 77.551 44.0215 78.2452 44.0215 79.1379C44.0215 80.2785 43.5814 81.1711 42.7011 81.8158C41.8208 82.4606 40.4633 82.7828 38.6284 82.7828ZM39.0189 73.7076C39.5148 73.7076 39.8496 73.5154 40.0232 73.131C40.1968 72.7344 40.2835 72.2012 40.2835 71.5317C40.2835 70.8375 40.1905 70.2796 40.0046 69.858C39.831 69.4365 39.4962 69.2257 39.0003 69.2257C38.5168 69.2257 38.1821 69.4427 37.9961 69.8766C37.8101 70.3105 37.7171 70.8685 37.7171 71.5503C37.7171 72.1951 37.8101 72.7158 37.9961 73.1124C38.1944 73.5092 38.5354 73.7076 39.0189 73.7076ZM38.6656 81.667C39.7566 81.667 40.5501 81.5059 41.046 81.1835C41.5419 80.8736 41.7899 80.4149 41.7899 79.8073C41.7899 79.4107 41.6659 79.1317 41.4179 78.9705C41.1699 78.8217 40.7919 78.7473 40.2835 78.7473H38.1263C37.8783 78.7473 37.6242 78.7784 37.3638 78.8403C37.1158 78.9147 36.9051 79.0511 36.7315 79.2494C36.5579 79.4479 36.4711 79.7515 36.4711 80.1607C36.4711 81.1649 37.2027 81.667 38.6656 81.667ZM50.3178 78.5056C48.8301 78.5056 47.6585 78.0778 46.803 77.2224C45.9476 76.3545 45.5198 75.0465 45.5198 73.2984C45.5198 71.5503 45.929 70.2485 46.7472 69.3931C47.5655 68.5376 48.7743 68.1099 50.3736 68.1099C51.8614 68.1099 53.033 68.5376 53.8885 69.3931C54.7439 70.2485 55.1716 71.5503 55.1716 73.2984C55.1716 75.0465 54.7564 76.3545 53.9256 77.2224C53.1074 78.0778 51.9048 78.5056 50.3178 78.5056ZM50.355 77.334C51.0742 77.334 51.5763 76.9931 51.8614 76.3111C52.1466 75.6169 52.2891 74.6127 52.2891 73.2984C52.2891 71.9719 52.1403 70.9738 51.8428 70.3043C51.5577 69.6348 51.0556 69.3001 50.3364 69.3001C49.6174 69.3001 49.1153 69.6348 48.8301 70.3043C48.545 70.9738 48.4024 71.9719 48.4024 73.2984C48.4024 74.6127 48.545 75.6169 48.8301 76.3111C49.1276 76.9931 49.636 77.334 50.355 77.334ZM56.4228 78.3196V77.334H56.46C56.8816 77.334 57.2287 77.2596 57.5015 77.1108C57.7743 76.962 57.9106 76.6087 57.9106 76.0508V70.5461C57.9106 70.0254 57.7867 69.6968 57.5387 69.5604C57.3031 69.4117 56.9808 69.3373 56.5716 69.3373H56.5158V68.3516H60.4212L60.6629 69.672H60.7559C61.0039 69.201 61.2705 68.86 61.5556 68.6492C61.8531 68.426 62.1693 68.2835 62.504 68.2215C62.8512 68.1471 63.217 68.1099 63.601 68.1099C64.5559 68.1099 65.3063 68.3951 65.8512 68.9653C66.397 69.5357 66.6695 70.447 66.6695 71.6991V76.0136C66.6695 76.5839 66.769 76.9496 66.967 77.1108C67.1781 77.2596 67.4942 77.334 67.9155 77.334H67.9712V78.3196H63.8427V72.2012C63.8427 71.3954 63.7312 70.7755 63.508 70.3415C63.2848 69.9076 62.9008 69.6906 62.3553 69.6906C61.9461 69.6906 61.6238 69.827 61.3882 70.0997C61.1527 70.3601 60.9853 70.7134 60.8861 71.1598C60.787 71.5937 60.7373 72.0649 60.7373 72.5731V76.1251C60.7373 76.6459 60.8551 76.9806 61.0907 77.1294C61.3387 77.2658 61.6672 77.334 62.0763 77.334H62.1321V78.3196H56.4228ZM69.2916 69.765C69.8374 69.5667 70.2466 69.3683 70.519 69.1699C70.7924 68.9592 70.9282 68.674 70.9282 68.3144C70.9282 68.1409 70.8603 68.0108 70.7236 67.9239C70.5878 67.8248 70.426 67.7256 70.2401 67.6264C70.0671 67.5148 69.9118 67.366 69.7752 67.18C69.6394 66.9817 69.5706 66.6966 69.5706 66.3246C69.5706 65.9031 69.6952 65.5869 69.9425 65.3762C70.2029 65.153 70.5255 65.0414 70.9096 65.0414C71.4303 65.0414 71.8459 65.2274 72.1556 65.5993C72.4661 65.9589 72.6205 66.4548 72.6205 67.0871C72.6205 67.8806 72.3666 68.6059 71.858 69.2629C71.3624 69.92 70.5069 70.4098 69.2916 70.732V69.765ZM77.0372 78.5056C75.6852 78.5056 74.7247 78.301 74.1547 77.8919C73.5838 77.4704 73.2993 76.9496 73.2993 76.3297C73.2993 75.9206 73.3978 75.6169 73.5968 75.4185C73.7949 75.2201 74.0301 75.09 74.3035 75.0279C74.5759 74.9535 74.8177 74.9164 75.0288 74.9164C75.0288 75.6851 75.2082 76.2925 75.5681 76.7388C75.94 77.1852 76.4291 77.4083 77.0372 77.4083C77.6816 77.4083 78.1465 77.2844 78.432 77.0364C78.7296 76.7885 78.8783 76.491 78.8783 76.1437C78.8783 75.7346 78.7165 75.3999 78.3948 75.1395C78.0722 74.8792 77.4706 74.5941 76.5909 74.2841C75.5867 73.9369 74.8177 73.5278 74.2849 73.0567C73.7512 72.5731 73.4852 71.9161 73.4852 71.0854C73.4852 70.0936 73.8507 69.3559 74.5825 68.8724C75.3133 68.3765 76.2803 68.1285 77.4836 68.1285C78.2646 68.1285 78.8904 68.2153 79.3619 68.3888C79.8454 68.5501 80.1922 68.767 80.4033 69.0397C80.6264 69.3001 80.738 69.5729 80.738 69.858C80.738 70.2796 80.5893 70.6019 80.2917 70.825C80.0062 71.0358 79.5227 71.1412 78.8411 71.1412C78.8411 70.5213 78.7045 70.044 78.432 69.7092C78.1586 69.3621 77.7495 69.1885 77.2046 69.1885C76.8076 69.1885 76.4542 69.2877 76.1446 69.4861C75.847 69.672 75.6983 69.9572 75.6983 70.3415C75.6983 70.6019 75.7661 70.8313 75.9028 71.0296C76.0516 71.228 76.312 71.4201 76.6839 71.6061C77.0558 71.7921 77.5766 72.0029 78.246 72.2384C79.0764 72.5236 79.7524 72.9017 80.2731 73.3728C80.8059 73.8316 81.0728 74.4514 81.0728 75.2325C81.0728 76.2616 80.7194 77.0675 80.0127 77.6501C79.3182 78.2205 78.326 78.5056 77.0372 78.5056ZM97.3823 82.7828C96.6384 82.7828 95.9196 82.6341 95.225 82.3365C94.5314 82.039 93.9484 81.5679 93.4769 80.9232C93.0064 80.2785 92.7275 79.4354 92.6401 78.394C90.9663 78.1336 89.7203 77.4022 88.9021 76.1995C88.0838 74.997 87.6747 73.4783 87.6747 71.6433C87.6747 70.2671 87.9043 69.0708 88.3628 68.0541C88.8342 67.0375 89.5344 66.2502 90.4642 65.6923C91.4071 65.122 92.5843 64.8369 93.9976 64.8369C95.3366 64.8369 96.471 65.122 97.4009 65.6923C98.3437 66.2502 99.056 67.0437 99.5395 68.0727C100.023 69.0894 100.265 70.2857 100.265 71.6619C100.265 73.3976 99.8743 74.8544 99.0932 76.0322C98.3251 77.1976 97.2093 77.9601 95.7457 78.3196C95.8201 79.2247 95.9875 79.9189 96.2479 80.4024C96.5212 80.8984 96.8495 81.2393 97.2335 81.4253C97.6184 81.6112 98.0146 81.7042 98.4237 81.7042H98.7212V82.7828H97.3823ZM93.979 77.2968C95.1451 77.2968 95.9633 76.8009 96.4338 75.809C96.9053 74.8172 97.1405 73.4348 97.1405 71.6619C97.1405 69.889 96.9053 68.5129 96.4338 67.5334C95.9633 66.5416 95.1506 66.0457 93.9976 66.0457C92.8325 66.0457 92.0078 66.5416 91.5242 67.5334C91.0407 68.5129 90.799 69.889 90.799 71.6619C90.799 73.4348 91.0407 74.8172 91.5242 75.809C92.0078 76.8009 92.826 77.2968 93.979 77.2968ZM106.088 78.5056C105.121 78.5056 104.377 78.208 103.857 77.6129C103.336 77.0054 103.076 76.0756 103.076 74.8234V70.6577C103.076 70.1122 102.976 69.7589 102.778 69.5976C102.579 69.4241 102.257 69.3373 101.811 69.3373H101.774V68.3516H105.902V74.3027C105.902 75.0962 106.001 75.7346 106.2 76.2181C106.398 76.6893 106.77 76.9248 107.316 76.9248C107.911 76.9248 108.339 76.6707 108.599 76.1623C108.871 75.6541 109.008 74.966 109.008 74.0981V70.5275C109.008 69.982 108.871 69.6473 108.599 69.5232C108.339 69.3993 108.028 69.3373 107.669 69.3373H107.613V68.3516H111.835V76.1623C111.835 76.6955 111.952 77.024 112.188 77.148C112.423 77.272 112.721 77.334 113.081 77.334H113.23V78.3196H109.529L109.12 76.9992H109.027C108.655 77.644 108.214 78.0592 107.706 78.2452C107.21 78.4188 106.67 78.5056 106.088 78.5056ZM116.875 66.678C116.428 66.678 116.05 66.5726 115.74 66.3618C115.443 66.1386 115.294 65.7977 115.294 65.339C115.294 64.8679 115.443 64.5269 115.74 64.3161C116.05 64.1054 116.428 64 116.875 64C117.308 64 117.68 64.1054 117.99 64.3161C118.312 64.5269 118.474 64.8679 118.474 65.339C118.474 65.7977 118.312 66.1386 117.99 66.3618C117.68 66.5726 117.308 66.678 116.875 66.678ZM114.011 78.3196V77.334H114.234C114.42 77.334 114.611 77.3092 114.81 77.2596C115.021 77.1976 115.194 77.0798 115.331 76.9062C115.48 76.7327 115.554 76.4724 115.554 76.1251V70.4717C115.554 70.1369 115.48 69.889 115.331 69.7278C115.182 69.5667 115.002 69.4613 114.792 69.4117C114.593 69.3621 114.407 69.3373 114.234 69.3373H114.011V68.3516H118.381V76.1251C118.381 76.4724 118.449 76.7327 118.586 76.9062C118.734 77.0798 118.914 77.1976 119.125 77.2596C119.335 77.3092 119.527 77.334 119.701 77.334H119.925V78.3196H114.011ZM120.548 78.3196V77.334H120.772C120.958 77.334 121.149 77.3092 121.348 77.2596C121.558 77.1976 121.732 77.0798 121.869 76.9062C122.018 76.7327 122.092 76.4724 122.092 76.1251V66.306C122.092 65.9713 122.018 65.7233 121.869 65.5621C121.72 65.401 121.54 65.2956 121.33 65.246C121.131 65.1964 120.945 65.1716 120.772 65.1716H120.548V64.186H124.919V76.1251C124.919 76.4724 124.987 76.7327 125.123 76.9062C125.272 77.0798 125.452 77.1976 125.663 77.2596C125.873 77.3092 126.065 77.334 126.239 77.334H126.462V78.3196H120.548ZM127.086 78.3196V77.334H127.309C127.495 77.334 127.688 77.3092 127.886 77.2596C128.097 77.1976 128.27 77.0798 128.407 76.9062C128.555 76.7327 128.63 76.4724 128.63 76.1251V66.306C128.63 65.9713 128.555 65.7233 128.407 65.5621C128.258 65.401 128.078 65.2956 127.867 65.246C127.669 65.1964 127.483 65.1716 127.309 65.1716H127.086V64.186H131.456V76.1251C131.456 76.4724 131.524 76.7327 131.661 76.9062C131.81 77.0798 131.989 77.1976 132.2 77.2596C132.411 77.3092 132.603 77.334 132.777 77.334H133V78.3196H127.086Z" fill="black"/>
</svg>
