<svg width="260" height="260" viewBox="0 0 260 260" fill="none" xmlns="http://www.w3.org/2000/svg">
<g clip-path="url(#clip0_305_13)">
<path d="M129 0.577348C129.619 0.220083 130.381 0.220085 131 0.57735L241.583 64.4227C242.202 64.7799 242.583 65.4402 242.583 66.1547V193.845C242.583 194.56 242.202 195.22 241.583 195.577L131 259.423C130.381 259.78 129.619 259.78 129 259.423L18.4167 195.577C17.7979 195.22 17.4167 194.56 17.4167 193.845V66.1547C17.4167 65.4402 17.7979 64.7799 18.4167 64.4227L129 0.577348Z" fill="#164974"/>
<mask id="path-2-outside-1_305_13" maskUnits="userSpaceOnUse" x="45.5515" y="81.3625" width="172" height="94" fill="black">
<rect fill="white" x="45.5515" y="81.3625" width="172" height="94"/>
<path d="M96.4234 121.692C96.9921 121.692 97.7437 121.652 98.6781 121.57C99.6124 121.448 100.506 121.144 101.359 120.656C102.253 120.128 103.005 119.336 103.614 118.28C104.264 117.183 104.589 115.659 104.589 113.709C104.589 113.384 104.752 113.222 105.077 113.222H107.453C107.778 113.222 107.941 113.384 107.941 113.709V138.206C107.941 138.409 107.88 138.552 107.758 138.633C107.636 138.673 107.534 138.694 107.453 138.694H105.077C104.873 138.694 104.731 138.633 104.65 138.511C104.609 138.389 104.589 138.288 104.589 138.206C104.589 136.013 104.264 134.327 103.614 133.148C103.005 131.93 102.273 131.036 101.42 130.467C100.567 129.898 99.6734 129.573 98.739 129.492C97.8453 129.37 97.114 129.309 96.5453 129.309H76.1921C75.7046 129.309 75.339 129.472 75.0953 129.797C74.8515 130.081 74.7296 130.467 74.7296 130.955V160.144C74.7296 161.241 74.9328 162.175 75.339 162.947C75.7859 163.678 76.375 164.328 77.1062 164.897C77.8781 165.425 78.7718 165.892 79.7874 166.298C80.8031 166.705 81.9203 167.091 83.139 167.456C83.7484 167.659 84.3984 167.842 85.089 168.005C85.7796 168.167 86.3484 168.248 86.7953 168.248C87.039 168.248 87.1812 168.33 87.2218 168.492C87.2625 168.614 87.2828 168.695 87.2828 168.736V171.113C87.2828 171.194 87.2421 171.295 87.1609 171.417C87.1203 171.539 86.9984 171.6 86.7953 171.6H48.039C47.8359 171.6 47.6937 171.539 47.6125 171.417C47.5718 171.295 47.5515 171.194 47.5515 171.113V168.736C47.5515 168.655 47.5718 168.553 47.6125 168.431C47.6531 168.309 47.7953 168.248 48.039 168.248C48.4859 168.248 49.0546 168.167 49.7453 168.005C50.4765 167.802 51.025 167.619 51.3906 167.456C53.1375 166.684 54.5593 165.669 55.6562 164.409C56.7937 163.109 57.3625 161.545 57.3625 159.717V94.8188C57.3625 93.275 56.9359 92.0563 56.0828 91.1625C55.2296 90.2688 54.2546 89.5985 53.1578 89.1516C52.1015 88.7047 51.0859 88.4204 50.1109 88.2985C49.1765 88.1766 48.5875 88.1157 48.3437 88.1157H48.1C47.8968 88.1157 47.7546 88.0547 47.6734 87.9329C47.6328 87.811 47.6125 87.7094 47.6125 87.6282V86.1657C47.6125 86.0844 47.6328 85.9829 47.6734 85.861C47.7546 85.7391 47.8968 85.6782 48.1 85.6782H108.306C108.794 85.7594 109.159 85.8813 109.403 86.0438C109.647 86.1657 109.769 86.511 109.769 87.0797V103.655C109.769 104.142 109.627 104.447 109.342 104.569C109.058 104.691 108.733 104.752 108.367 104.752H107.148C107.067 104.711 106.945 104.366 106.783 103.716C106.661 103.025 106.478 102.233 106.234 101.339C105.991 100.405 105.686 99.4907 105.32 98.5969C104.995 97.6625 104.609 96.9313 104.162 96.4032C103.594 95.7938 103.045 95.286 102.517 94.8797C101.989 94.4735 101.4 94.1485 100.75 93.9047C100.1 93.661 99.3484 93.4985 98.4953 93.4172C97.6421 93.336 96.6062 93.2954 95.3875 93.2954H75.9484C75.1359 93.2954 74.7296 93.7016 74.7296 94.5141V120.291C74.7296 121.225 75.2171 121.692 76.1921 121.692H96.4234Z"/>
<path d="M123.175 127.908C123.175 123.805 123.723 119.864 124.82 116.086C125.917 112.308 127.461 108.773 129.452 105.483C131.442 102.152 133.819 99.1454 136.581 96.4641C139.384 93.7422 142.452 91.4063 145.783 89.4563C149.114 87.5063 152.669 86.0032 156.447 84.9469C160.266 83.8907 164.186 83.3625 168.208 83.3625C170.361 83.3625 172.555 83.5047 174.789 83.7891C177.023 84.0329 179.197 84.3579 181.309 84.7641C183.462 85.1704 185.494 85.6172 187.403 86.1047C189.312 86.5922 190.978 87.0391 192.4 87.4454C193.862 87.8516 195.041 88.1969 195.934 88.4813C196.869 88.725 197.397 88.8469 197.519 88.8469H198.25C198.575 88.8469 198.819 88.8266 198.981 88.786C199.184 88.7047 199.347 88.6235 199.469 88.5422C199.631 88.461 199.794 88.4 199.956 88.3594C200.119 88.2782 200.362 88.2375 200.687 88.2375H203.125C203.206 88.2375 203.328 88.2782 203.491 88.3594C203.694 88.4 203.795 88.5829 203.795 88.9079V109.2C203.795 109.647 203.592 109.952 203.186 110.114C202.82 110.277 202.495 110.358 202.211 110.358C201.845 110.317 201.52 110.114 201.236 109.748C200.952 109.383 200.687 108.977 200.444 108.53C200.2 108.083 199.997 107.656 199.834 107.25C199.672 106.844 199.57 106.539 199.53 106.336C198.514 103.167 197.072 100.506 195.203 98.3532C193.375 96.1594 191.202 94.3719 188.683 92.9907C186.205 91.6094 183.462 90.6141 180.456 90.0047C177.491 89.3954 174.362 89.0907 171.072 89.0907C165.425 89.0907 160.712 90.1266 156.934 92.1985C153.156 94.2704 150.109 97.0532 147.794 100.547C145.519 104.041 143.894 108.083 142.919 112.673C141.984 117.223 141.517 122.017 141.517 127.055C141.517 130.508 141.862 133.9 142.553 137.231C143.244 140.563 144.219 143.731 145.478 146.738C146.778 149.703 148.342 152.445 150.17 154.964C151.998 157.442 154.03 159.595 156.264 161.423C158.539 163.211 160.977 164.613 163.577 165.628C166.217 166.644 169 167.152 171.925 167.152C175.216 167.152 178.1 166.806 180.578 166.116C183.097 165.384 185.128 163.983 186.672 161.911V148.444C186.672 146.697 186.448 145.153 186.002 143.813C185.595 142.431 184.823 141.273 183.686 140.339C182.548 139.405 181.005 138.694 179.055 138.206C177.105 137.719 174.606 137.475 171.559 137.475C171.316 137.475 171.133 137.252 171.011 136.805C170.93 136.317 170.889 135.911 170.889 135.586C170.889 135.383 170.93 135.038 171.011 134.55C171.133 134.063 171.316 133.819 171.559 133.819H213.972C214.297 133.819 214.48 134.063 214.52 134.55C214.602 134.997 214.642 135.342 214.642 135.586C214.642 135.789 214.602 136.114 214.52 136.561C214.439 137.008 214.256 137.313 213.972 137.475C212.875 137.922 211.737 138.308 210.559 138.633C209.422 138.958 208.366 139.384 207.391 139.913C206.416 140.441 205.603 141.172 204.953 142.106C204.344 143 204.039 144.239 204.039 145.823V163.617C204.039 163.942 203.897 164.206 203.612 164.409C203.369 164.613 202.962 164.836 202.394 165.08C200.119 166.177 197.539 167.213 194.655 168.188C191.77 169.163 188.805 170.036 185.758 170.808C182.711 171.539 179.684 172.128 176.678 172.575C173.672 173.022 170.93 173.245 168.452 173.245C162.155 173.245 156.264 172.209 150.78 170.138C145.295 168.025 140.502 165.019 136.398 161.119C132.295 157.178 129.066 152.405 126.709 146.798C124.353 141.192 123.175 134.895 123.175 127.908Z"/>
</mask>
<path d="M96.4234 121.692C96.9921 121.692 97.7437 121.652 98.6781 121.57C99.6124 121.448 100.506 121.144 101.359 120.656C102.253 120.128 103.005 119.336 103.614 118.28C104.264 117.183 104.589 115.659 104.589 113.709C104.589 113.384 104.752 113.222 105.077 113.222H107.453C107.778 113.222 107.941 113.384 107.941 113.709V138.206C107.941 138.409 107.88 138.552 107.758 138.633C107.636 138.673 107.534 138.694 107.453 138.694H105.077C104.873 138.694 104.731 138.633 104.65 138.511C104.609 138.389 104.589 138.288 104.589 138.206C104.589 136.013 104.264 134.327 103.614 133.148C103.005 131.93 102.273 131.036 101.42 130.467C100.567 129.898 99.6734 129.573 98.739 129.492C97.8453 129.37 97.114 129.309 96.5453 129.309H76.1921C75.7046 129.309 75.339 129.472 75.0953 129.797C74.8515 130.081 74.7296 130.467 74.7296 130.955V160.144C74.7296 161.241 74.9328 162.175 75.339 162.947C75.7859 163.678 76.375 164.328 77.1062 164.897C77.8781 165.425 78.7718 165.892 79.7874 166.298C80.8031 166.705 81.9203 167.091 83.139 167.456C83.7484 167.659 84.3984 167.842 85.089 168.005C85.7796 168.167 86.3484 168.248 86.7953 168.248C87.039 168.248 87.1812 168.33 87.2218 168.492C87.2625 168.614 87.2828 168.695 87.2828 168.736V171.113C87.2828 171.194 87.2421 171.295 87.1609 171.417C87.1203 171.539 86.9984 171.6 86.7953 171.6H48.039C47.8359 171.6 47.6937 171.539 47.6125 171.417C47.5718 171.295 47.5515 171.194 47.5515 171.113V168.736C47.5515 168.655 47.5718 168.553 47.6125 168.431C47.6531 168.309 47.7953 168.248 48.039 168.248C48.4859 168.248 49.0546 168.167 49.7453 168.005C50.4765 167.802 51.025 167.619 51.3906 167.456C53.1375 166.684 54.5593 165.669 55.6562 164.409C56.7937 163.109 57.3625 161.545 57.3625 159.717V94.8188C57.3625 93.275 56.9359 92.0563 56.0828 91.1625C55.2296 90.2688 54.2546 89.5985 53.1578 89.1516C52.1015 88.7047 51.0859 88.4204 50.1109 88.2985C49.1765 88.1766 48.5875 88.1157 48.3437 88.1157H48.1C47.8968 88.1157 47.7546 88.0547 47.6734 87.9329C47.6328 87.811 47.6125 87.7094 47.6125 87.6282V86.1657C47.6125 86.0844 47.6328 85.9829 47.6734 85.861C47.7546 85.7391 47.8968 85.6782 48.1 85.6782H108.306C108.794 85.7594 109.159 85.8813 109.403 86.0438C109.647 86.1657 109.769 86.511 109.769 87.0797V103.655C109.769 104.142 109.627 104.447 109.342 104.569C109.058 104.691 108.733 104.752 108.367 104.752H107.148C107.067 104.711 106.945 104.366 106.783 103.716C106.661 103.025 106.478 102.233 106.234 101.339C105.991 100.405 105.686 99.4907 105.32 98.5969C104.995 97.6625 104.609 96.9313 104.162 96.4032C103.594 95.7938 103.045 95.286 102.517 94.8797C101.989 94.4735 101.4 94.1485 100.75 93.9047C100.1 93.661 99.3484 93.4985 98.4953 93.4172C97.6421 93.336 96.6062 93.2954 95.3875 93.2954H75.9484C75.1359 93.2954 74.7296 93.7016 74.7296 94.5141V120.291C74.7296 121.225 75.2171 121.692 76.1921 121.692H96.4234Z" fill="#FFD700"/>
<path d="M123.175 127.908C123.175 123.805 123.723 119.864 124.82 116.086C125.917 112.308 127.461 108.773 129.452 105.483C131.442 102.152 133.819 99.1454 136.581 96.4641C139.384 93.7422 142.452 91.4063 145.783 89.4563C149.114 87.5063 152.669 86.0032 156.447 84.9469C160.266 83.8907 164.186 83.3625 168.208 83.3625C170.361 83.3625 172.555 83.5047 174.789 83.7891C177.023 84.0329 179.197 84.3579 181.309 84.7641C183.462 85.1704 185.494 85.6172 187.403 86.1047C189.312 86.5922 190.978 87.0391 192.4 87.4454C193.862 87.8516 195.041 88.1969 195.934 88.4813C196.869 88.725 197.397 88.8469 197.519 88.8469H198.25C198.575 88.8469 198.819 88.8266 198.981 88.786C199.184 88.7047 199.347 88.6235 199.469 88.5422C199.631 88.461 199.794 88.4 199.956 88.3594C200.119 88.2782 200.362 88.2375 200.687 88.2375H203.125C203.206 88.2375 203.328 88.2782 203.491 88.3594C203.694 88.4 203.795 88.5829 203.795 88.9079V109.2C203.795 109.647 203.592 109.952 203.186 110.114C202.82 110.277 202.495 110.358 202.211 110.358C201.845 110.317 201.52 110.114 201.236 109.748C200.952 109.383 200.687 108.977 200.444 108.53C200.2 108.083 199.997 107.656 199.834 107.25C199.672 106.844 199.57 106.539 199.53 106.336C198.514 103.167 197.072 100.506 195.203 98.3532C193.375 96.1594 191.202 94.3719 188.683 92.9907C186.205 91.6094 183.462 90.6141 180.456 90.0047C177.491 89.3954 174.362 89.0907 171.072 89.0907C165.425 89.0907 160.712 90.1266 156.934 92.1985C153.156 94.2704 150.109 97.0532 147.794 100.547C145.519 104.041 143.894 108.083 142.919 112.673C141.984 117.223 141.517 122.017 141.517 127.055C141.517 130.508 141.862 133.9 142.553 137.231C143.244 140.563 144.219 143.731 145.478 146.738C146.778 149.703 148.342 152.445 150.17 154.964C151.998 157.442 154.03 159.595 156.264 161.423C158.539 163.211 160.977 164.613 163.577 165.628C166.217 166.644 169 167.152 171.925 167.152C175.216 167.152 178.1 166.806 180.578 166.116C183.097 165.384 185.128 163.983 186.672 161.911V148.444C186.672 146.697 186.448 145.153 186.002 143.813C185.595 142.431 184.823 141.273 183.686 140.339C182.548 139.405 181.005 138.694 179.055 138.206C177.105 137.719 174.606 137.475 171.559 137.475C171.316 137.475 171.133 137.252 171.011 136.805C170.93 136.317 170.889 135.911 170.889 135.586C170.889 135.383 170.93 135.038 171.011 134.55C171.133 134.063 171.316 133.819 171.559 133.819H213.972C214.297 133.819 214.48 134.063 214.52 134.55C214.602 134.997 214.642 135.342 214.642 135.586C214.642 135.789 214.602 136.114 214.52 136.561C214.439 137.008 214.256 137.313 213.972 137.475C212.875 137.922 211.737 138.308 210.559 138.633C209.422 138.958 208.366 139.384 207.391 139.913C206.416 140.441 205.603 141.172 204.953 142.106C204.344 143 204.039 144.239 204.039 145.823V163.617C204.039 163.942 203.897 164.206 203.612 164.409C203.369 164.613 202.962 164.836 202.394 165.08C200.119 166.177 197.539 167.213 194.655 168.188C191.77 169.163 188.805 170.036 185.758 170.808C182.711 171.539 179.684 172.128 176.678 172.575C173.672 173.022 170.93 173.245 168.452 173.245C162.155 173.245 156.264 172.209 150.78 170.138C145.295 168.025 140.502 165.019 136.398 161.119C132.295 157.178 129.066 152.405 126.709 146.798C124.353 141.192 123.175 134.895 123.175 127.908Z" fill="#FFD700"/>
<path d="M96.4234 121.692C96.9921 121.692 97.7437 121.652 98.6781 121.57C99.6124 121.448 100.506 121.144 101.359 120.656C102.253 120.128 103.005 119.336 103.614 118.28C104.264 117.183 104.589 115.659 104.589 113.709C104.589 113.384 104.752 113.222 105.077 113.222H107.453C107.778 113.222 107.941 113.384 107.941 113.709V138.206C107.941 138.409 107.88 138.552 107.758 138.633C107.636 138.673 107.534 138.694 107.453 138.694H105.077C104.873 138.694 104.731 138.633 104.65 138.511C104.609 138.389 104.589 138.288 104.589 138.206C104.589 136.013 104.264 134.327 103.614 133.148C103.005 131.93 102.273 131.036 101.42 130.467C100.567 129.898 99.6734 129.573 98.739 129.492C97.8453 129.37 97.114 129.309 96.5453 129.309H76.1921C75.7046 129.309 75.339 129.472 75.0953 129.797C74.8515 130.081 74.7296 130.467 74.7296 130.955V160.144C74.7296 161.241 74.9328 162.175 75.339 162.947C75.7859 163.678 76.375 164.328 77.1062 164.897C77.8781 165.425 78.7718 165.892 79.7874 166.298C80.8031 166.705 81.9203 167.091 83.139 167.456C83.7484 167.659 84.3984 167.842 85.089 168.005C85.7796 168.167 86.3484 168.248 86.7953 168.248C87.039 168.248 87.1812 168.33 87.2218 168.492C87.2625 168.614 87.2828 168.695 87.2828 168.736V171.113C87.2828 171.194 87.2421 171.295 87.1609 171.417C87.1203 171.539 86.9984 171.6 86.7953 171.6H48.039C47.8359 171.6 47.6937 171.539 47.6125 171.417C47.5718 171.295 47.5515 171.194 47.5515 171.113V168.736C47.5515 168.655 47.5718 168.553 47.6125 168.431C47.6531 168.309 47.7953 168.248 48.039 168.248C48.4859 168.248 49.0546 168.167 49.7453 168.005C50.4765 167.802 51.025 167.619 51.3906 167.456C53.1375 166.684 54.5593 165.669 55.6562 164.409C56.7937 163.109 57.3625 161.545 57.3625 159.717V94.8188C57.3625 93.275 56.9359 92.0563 56.0828 91.1625C55.2296 90.2688 54.2546 89.5985 53.1578 89.1516C52.1015 88.7047 51.0859 88.4204 50.1109 88.2985C49.1765 88.1766 48.5875 88.1157 48.3437 88.1157H48.1C47.8968 88.1157 47.7546 88.0547 47.6734 87.9329C47.6328 87.811 47.6125 87.7094 47.6125 87.6282V86.1657C47.6125 86.0844 47.6328 85.9829 47.6734 85.861C47.7546 85.7391 47.8968 85.6782 48.1 85.6782H108.306C108.794 85.7594 109.159 85.8813 109.403 86.0438C109.647 86.1657 109.769 86.511 109.769 87.0797V103.655C109.769 104.142 109.627 104.447 109.342 104.569C109.058 104.691 108.733 104.752 108.367 104.752H107.148C107.067 104.711 106.945 104.366 106.783 103.716C106.661 103.025 106.478 102.233 106.234 101.339C105.991 100.405 105.686 99.4907 105.32 98.5969C104.995 97.6625 104.609 96.9313 104.162 96.4032C103.594 95.7938 103.045 95.286 102.517 94.8797C101.989 94.4735 101.4 94.1485 100.75 93.9047C100.1 93.661 99.3484 93.4985 98.4953 93.4172C97.6421 93.336 96.6062 93.2954 95.3875 93.2954H75.9484C75.1359 93.2954 74.7296 93.7016 74.7296 94.5141V120.291C74.7296 121.225 75.2171 121.692 76.1921 121.692H96.4234Z" stroke="#FFD700" stroke-width="4" mask="url(#path-2-outside-1_305_13)"/>
<path d="M123.175 127.908C123.175 123.805 123.723 119.864 124.82 116.086C125.917 112.308 127.461 108.773 129.452 105.483C131.442 102.152 133.819 99.1454 136.581 96.4641C139.384 93.7422 142.452 91.4063 145.783 89.4563C149.114 87.5063 152.669 86.0032 156.447 84.9469C160.266 83.8907 164.186 83.3625 168.208 83.3625C170.361 83.3625 172.555 83.5047 174.789 83.7891C177.023 84.0329 179.197 84.3579 181.309 84.7641C183.462 85.1704 185.494 85.6172 187.403 86.1047C189.312 86.5922 190.978 87.0391 192.4 87.4454C193.862 87.8516 195.041 88.1969 195.934 88.4813C196.869 88.725 197.397 88.8469 197.519 88.8469H198.25C198.575 88.8469 198.819 88.8266 198.981 88.786C199.184 88.7047 199.347 88.6235 199.469 88.5422C199.631 88.461 199.794 88.4 199.956 88.3594C200.119 88.2782 200.362 88.2375 200.687 88.2375H203.125C203.206 88.2375 203.328 88.2782 203.491 88.3594C203.694 88.4 203.795 88.5829 203.795 88.9079V109.2C203.795 109.647 203.592 109.952 203.186 110.114C202.82 110.277 202.495 110.358 202.211 110.358C201.845 110.317 201.52 110.114 201.236 109.748C200.952 109.383 200.687 108.977 200.444 108.53C200.2 108.083 199.997 107.656 199.834 107.25C199.672 106.844 199.57 106.539 199.53 106.336C198.514 103.167 197.072 100.506 195.203 98.3532C193.375 96.1594 191.202 94.3719 188.683 92.9907C186.205 91.6094 183.462 90.6141 180.456 90.0047C177.491 89.3954 174.362 89.0907 171.072 89.0907C165.425 89.0907 160.712 90.1266 156.934 92.1985C153.156 94.2704 150.109 97.0532 147.794 100.547C145.519 104.041 143.894 108.083 142.919 112.673C141.984 117.223 141.517 122.017 141.517 127.055C141.517 130.508 141.862 133.9 142.553 137.231C143.244 140.563 144.219 143.731 145.478 146.738C146.778 149.703 148.342 152.445 150.17 154.964C151.998 157.442 154.03 159.595 156.264 161.423C158.539 163.211 160.977 164.613 163.577 165.628C166.217 166.644 169 167.152 171.925 167.152C175.216 167.152 178.1 166.806 180.578 166.116C183.097 165.384 185.128 163.983 186.672 161.911V148.444C186.672 146.697 186.448 145.153 186.002 143.813C185.595 142.431 184.823 141.273 183.686 140.339C182.548 139.405 181.005 138.694 179.055 138.206C177.105 137.719 174.606 137.475 171.559 137.475C171.316 137.475 171.133 137.252 171.011 136.805C170.93 136.317 170.889 135.911 170.889 135.586C170.889 135.383 170.93 135.038 171.011 134.55C171.133 134.063 171.316 133.819 171.559 133.819H213.972C214.297 133.819 214.48 134.063 214.52 134.55C214.602 134.997 214.642 135.342 214.642 135.586C214.642 135.789 214.602 136.114 214.52 136.561C214.439 137.008 214.256 137.313 213.972 137.475C212.875 137.922 211.737 138.308 210.559 138.633C209.422 138.958 208.366 139.384 207.391 139.913C206.416 140.441 205.603 141.172 204.953 142.106C204.344 143 204.039 144.239 204.039 145.823V163.617C204.039 163.942 203.897 164.206 203.612 164.409C203.369 164.613 202.962 164.836 202.394 165.08C200.119 166.177 197.539 167.213 194.655 168.188C191.77 169.163 188.805 170.036 185.758 170.808C182.711 171.539 179.684 172.128 176.678 172.575C173.672 173.022 170.93 173.245 168.452 173.245C162.155 173.245 156.264 172.209 150.78 170.138C145.295 168.025 140.502 165.019 136.398 161.119C132.295 157.178 129.066 152.405 126.709 146.798C124.353 141.192 123.175 134.895 123.175 127.908Z" stroke="#FFD700" stroke-width="4" mask="url(#path-2-outside-1_305_13)"/>
</g>
<defs>
<clipPath id="clip0_305_13">
<rect width="260" height="260" fill="white"/>
</clipPath>
</defs>
</svg>
