<svg width="133" height="79" viewBox="0 0 133 79" fill="none" xmlns="http://www.w3.org/2000/svg">
<path d="M53.0003 33C52.9989 32.2315 53.0591 31.464 53.1803 30.705C58.9778 28.412 65.5234 28.7615 70.149 31.08C73.5783 32.7948 77.4738 32.9935 79.9928 33.0075V33.3103C79.9215 36.5233 78.7045 39.6053 76.5615 42C76.551 42.0013 76.5403 42.0013 76.5295 42H56.4409C54.2228 39.5275 52.9973 36.3218 53.0003 33Z" fill="#E74C3C"/>
<path fill-rule="evenodd" clip-rule="evenodd" d="M76.9999 5.99999H56C55.1716 5.99999 54.5 5.32841 54.5 4.49999V1.5C54.5 0.671573 55.1716 0 56 0H76.9999C77.8284 0 78.4999 0.671573 78.4999 1.5V4.49999C78.4999 5.32841 77.8284 5.99999 76.9999 5.99999ZM75.4999 8.99998V15.8484C81.7991 19.2355 86.1603 25.9425 85.9998 33.4377C85.9003 38.1057 84.1223 42.5814 80.9919 46.0452C79.8481 47.2979 78.2276 48.0082 76.5311 47.9999H56.4631C54.7963 47.9999 53.1819 47.3314 52.0569 46.0967C48.7969 42.5147 46.9933 37.8434 47 33C47 25.4887 51.2759 19.0172 57.5 15.7612V8.99998H63.5V19.394C63.3054 19.4957 63.0644 19.6125 62.7864 19.7472C59.8924 21.1492 53 24.4885 53 33C52.997 36.3217 54.2225 39.5272 56.4406 41.9999H76.5294C76.5399 42.0012 76.5506 42.0012 76.5611 41.9999C78.7071 39.6059 79.9269 36.5235 79.9999 33.3092C80.1819 24.8515 73.0966 21.2622 70.1672 19.7782C69.9103 19.648 69.6853 19.534 69.5 19.4342V8.99998H75.4999Z" fill="black"/>
<path d="M1.05287 66.1057L0.0277063 65.9257V65.0667H4.23921V65.9257L3.0755 66.1057V69.583H7.287V66.1057L6.22027 65.9257V65.0667H10.3764V65.9257L9.32348 66.1057V74.3902L10.3764 74.5287V75.36H6.20642V74.5287L7.287 74.3902V70.6359H3.0755V74.3902L4.23921 74.5287V75.36H0V74.5287L1.05287 74.3902V66.1057ZM13.2435 66.3967C12.9111 66.3967 12.6478 66.2997 12.4539 66.1057C12.2599 65.9118 12.163 65.6624 12.163 65.3577C12.163 65.0067 12.2738 64.7158 12.4955 64.4849C12.7171 64.254 13.0127 64.1385 13.3821 64.1385C13.7515 64.1385 14.0332 64.2401 14.2272 64.4433C14.4211 64.6373 14.5181 64.882 14.5181 65.1776C14.5181 65.547 14.4072 65.8425 14.1856 66.0642C13.9639 66.2858 13.6545 66.3967 13.2574 66.3967H13.2435ZM12.5093 68.9734L11.5257 68.7102V67.782L14.0609 67.4773H14.0886L14.4765 67.7543V74.4179L15.4047 74.5287V75.36H11.5396V74.5287L12.5093 74.4041V68.9734ZM18.7251 75.4846C18.1433 75.4846 17.7138 75.3507 17.4367 75.0829C17.1596 74.8151 17.0211 74.3902 17.0211 73.8084V68.7241H16.1206V68.0037C16.1945 67.976 16.3284 67.9298 16.5224 67.8652C16.7163 67.7913 16.8641 67.7312 16.9657 67.6851C17.1227 67.565 17.2566 67.3572 17.3674 67.0616C17.4506 66.8677 17.603 66.3874 17.8246 65.6209H18.9329L18.9883 67.6574H21.1079V68.7241H19.0022V72.6169C19.0022 73.1341 19.016 73.499 19.0437 73.7114C19.0714 73.9238 19.1315 74.0623 19.2238 74.127C19.3162 74.1824 19.4778 74.2101 19.7087 74.2101C19.9396 74.2101 20.1797 74.187 20.4291 74.1408C20.6785 74.0854 20.8863 74.0208 21.0525 73.9469L21.3157 74.7227C21.0571 74.9166 20.6785 75.0921 20.1797 75.2491C19.681 75.4061 19.1961 75.4846 18.7251 75.4846ZM29.7138 71.2593C29.7138 72.0351 29.5522 72.7462 29.229 73.3927C28.9149 74.0392 28.4485 74.5565 27.8297 74.9444C27.2202 75.323 26.4906 75.5123 25.6409 75.5123C25.4562 75.5123 25.2622 75.4939 25.059 75.4569C24.8651 75.4292 24.7081 75.3923 24.588 75.3461L24.6296 76.496V77.7566L25.9179 77.9229V78.7125H21.8034V77.9229L22.7039 77.7566V68.9734L21.8034 68.7241V67.7682L24.0893 67.4773H24.117L24.4633 67.7543V68.5301C24.6942 68.2438 25.0082 67.9945 25.4054 67.782C25.8025 67.5696 26.2366 67.4634 26.7076 67.4634C27.585 67.4634 28.3054 67.7774 28.8688 68.4054C29.4321 69.0242 29.7138 69.9755 29.7138 71.2593ZM25.9872 68.6133C25.7101 68.6133 25.4469 68.6733 25.1976 68.7933C24.9482 68.9134 24.7589 69.0473 24.6296 69.1951V74.3348C24.6942 74.4272 24.8235 74.5057 25.0175 74.5703C25.2206 74.635 25.4423 74.6673 25.6824 74.6673C26.2828 74.6673 26.7584 74.4087 27.1094 73.8915C27.4695 73.365 27.6496 72.5431 27.6496 71.4255C27.6496 70.4835 27.4973 69.7816 27.1925 69.3198C26.8877 68.8488 26.4859 68.6133 25.9872 68.6133ZM30.8466 71.5225C30.8466 70.6544 31.0174 69.9155 31.3592 69.3059C31.7101 68.6964 32.1765 68.2392 32.7584 67.9344C33.3402 67.6204 33.9729 67.4634 34.6563 67.4634C35.82 67.4634 36.7159 67.8236 37.3439 68.544C37.9812 69.2551 38.2998 70.2249 38.2998 71.4532C38.2998 72.3306 38.1243 73.0787 37.7734 73.6975C37.4317 74.3071 36.9699 74.7643 36.388 75.069C35.8154 75.3646 35.1828 75.5123 34.4901 75.5123C33.3356 75.5123 32.4397 75.1568 31.8025 74.4456C31.1652 73.7252 30.8466 72.7509 30.8466 71.5225ZM34.6009 74.6119C35.6445 74.6119 36.1664 73.6052 36.1664 71.5918C36.1664 70.5389 36.0417 69.74 35.7923 69.1951C35.543 68.641 35.1366 68.3639 34.5732 68.3639C33.5019 68.3639 32.9662 69.3706 32.9662 71.384C32.9662 72.4368 33.0955 73.2404 33.3541 73.7945C33.6219 74.3394 34.0375 74.6119 34.6009 74.6119ZM41.2078 66.3967C40.8753 66.3967 40.6121 66.2997 40.4181 66.1057C40.2242 65.9118 40.1272 65.6624 40.1272 65.3577C40.1272 65.0067 40.238 64.7158 40.4597 64.4849C40.6813 64.254 40.9769 64.1385 41.3463 64.1385C41.7157 64.1385 41.9974 64.2401 42.1914 64.4433C42.3853 64.6373 42.4823 64.882 42.4823 65.1776C42.4823 65.547 42.3715 65.8425 42.1498 66.0642C41.9282 66.2858 41.6188 66.3967 41.2216 66.3967H41.2078ZM40.4735 68.9734L39.4899 68.7102V67.782L42.0251 67.4773H42.0529L42.4408 67.7543V74.4179L43.3689 74.5287V75.36H39.5038V74.5287L40.4735 74.4041V68.9734ZM45.1378 68.9734L44.2512 68.7241V67.7682L46.5509 67.4773H46.5924L46.9388 67.7543V68.2946L46.9249 68.6271C47.2482 68.3223 47.6684 68.0591 48.1856 67.8374C48.7028 67.6158 49.2246 67.505 49.7511 67.505C50.3144 67.505 50.7531 67.6112 51.0671 67.8236C51.3904 68.0268 51.6213 68.35 51.7598 68.7933C51.8984 69.2367 51.9676 69.837 51.9676 70.5943V74.4179L52.8127 74.5287V75.36H49.2385V74.5287L49.9866 74.4179V70.5943C49.9866 70.1141 49.9542 69.74 49.8896 69.4722C49.8249 69.1951 49.7049 68.9965 49.5294 68.8765C49.3632 68.7472 49.123 68.6825 48.809 68.6825C48.2826 68.6825 47.7192 68.9088 47.1189 69.3613V74.4041L47.9501 74.5287V75.36H44.3343V74.5287L45.1378 74.4041V68.9734ZM56.119 75.4846C55.5374 75.4846 55.1081 75.3507 54.831 75.0829C54.5539 74.8151 54.4154 74.3902 54.4154 73.8084V68.7241H53.5149V68.0037C53.5885 67.976 53.7227 67.9298 53.9161 67.8652C54.1102 67.7913 54.2581 67.7312 54.3598 67.6851C54.5164 67.565 54.6506 67.3572 54.7617 67.0616C54.8447 66.8677 54.997 66.3874 55.2185 65.6209H56.3268L56.3823 67.6574H58.5022V68.7241H56.396V72.6169C56.396 73.1341 56.4097 73.499 56.4379 73.7114C56.4653 73.9238 56.5252 74.0623 56.6175 74.127C56.7099 74.1824 56.8715 74.2101 57.1024 74.2101C57.3333 74.2101 57.5736 74.187 57.8232 74.1408C58.0722 74.0854 58.28 74.0208 58.4466 73.9469L58.71 74.7227C58.451 74.9166 58.0722 75.0921 57.5736 75.2491C57.075 75.4061 56.5901 75.4846 56.119 75.4846ZM67.3613 75.5123C65.7912 75.5123 64.5906 75.0459 63.7594 74.1131C62.9282 73.1711 62.5125 71.8873 62.5125 70.2618C62.5125 69.1905 62.7297 68.2577 63.1634 67.4634C63.6071 66.6599 64.2118 66.0411 64.9788 65.607C65.7451 65.1729 66.6131 64.9559 67.5828 64.9559C67.989 64.9559 68.3816 64.9836 68.7604 65.039C69.1392 65.0852 69.5873 65.1498 70.1046 65.233C70.4921 65.2976 70.7049 65.3299 70.7417 65.3299L70.5895 68.1838H69.3145L68.8852 66.2027C68.7835 66.1011 68.6081 66.018 68.3585 65.9534C68.1095 65.8887 67.7906 65.8564 67.4032 65.8564C66.6181 65.8564 65.9853 66.2212 65.5048 66.9508C65.0336 67.6712 64.7984 68.7195 64.7984 70.0956C64.7984 71.4255 65.025 72.5107 65.4774 73.3512C65.9298 74.1916 66.59 74.6119 67.458 74.6119C67.8736 74.6119 68.1925 74.5749 68.414 74.501C68.6449 74.4179 68.839 74.3025 68.9963 74.1547L69.6053 72.7278L70.7692 72.8386L70.4921 74.9859C70.298 75.0044 70.1046 75.0413 69.9105 75.0967C69.7258 75.1429 69.6104 75.1706 69.5642 75.1799C69.1947 75.2815 68.8484 75.36 68.5252 75.4154C68.2113 75.48 67.8231 75.5123 67.3613 75.5123ZM71.7007 73.1988C71.7007 72.3583 72.1206 71.7257 72.9612 71.3009C73.8104 70.876 74.905 70.659 76.2442 70.6497V70.3311C76.2442 69.9524 76.2031 69.6569 76.1194 69.4445C76.0458 69.232 75.9029 69.075 75.6901 68.9734C75.4873 68.8626 75.1871 68.8072 74.7896 68.8072C74.3372 68.8072 73.9309 68.8672 73.5709 68.9873C73.2101 69.0981 72.8364 69.2459 72.4482 69.4306L72.0189 68.544C72.1574 68.4239 72.3883 68.2808 72.7115 68.1145C73.0442 67.9483 73.4367 67.8051 73.8891 67.6851C74.3415 67.5558 74.8083 67.4911 75.2882 67.4911C75.9996 67.4911 76.5538 67.5835 76.9506 67.7682C77.3576 67.9529 77.6483 68.2484 77.8237 68.6548C77.999 69.0612 78.087 69.6061 78.087 70.2895V74.5287H78.8353V75.3045C78.6506 75.3507 78.3872 75.3969 78.0452 75.4431C77.7039 75.4893 77.4037 75.5123 77.1447 75.5123C76.8308 75.5123 76.6187 75.4662 76.5076 75.3738C76.4058 75.2815 76.3553 75.0921 76.3553 74.8058V74.4318C76.1057 74.7088 75.7824 74.9582 75.3856 75.1799C74.988 75.4015 74.5407 75.5123 74.0413 75.5123C73.6171 75.5123 73.2246 75.4246 72.8638 75.2491C72.5131 75.0644 72.2317 74.8012 72.0189 74.4595C71.8067 74.1085 71.7007 73.6883 71.7007 73.1988ZM74.9281 74.3625C75.1222 74.3625 75.3437 74.3071 75.5934 74.1963C75.8423 74.0762 76.0595 73.933 76.2442 73.7668V71.4948C75.413 71.4948 74.7896 71.638 74.374 71.9243C73.9677 72.2013 73.7643 72.5615 73.7643 73.0048C73.7643 73.4482 73.866 73.7853 74.0695 74.0162C74.2816 74.2471 74.5681 74.3625 74.9281 74.3625ZM80.5027 65.233L79.4782 65.0529V64.3048L82.0411 64H82.0685L82.4423 64.2632V74.4179L83.4539 74.5287V75.36H79.533V74.5287L80.5027 74.4041V65.233ZM84.2274 71.5502C84.2274 70.7559 84.3846 70.0494 84.6985 69.4306C85.0218 68.8118 85.4792 68.3316 86.0702 67.9898C86.6705 67.6389 87.3675 67.4634 88.1619 67.4634C88.5314 67.4634 88.8503 67.4911 89.118 67.5465C89.3857 67.6019 89.6858 67.6758 90.0184 67.7682L90.4204 67.879L90.3367 70.248H89.1317L88.7853 68.7241C88.7298 68.484 88.4578 68.3639 87.9678 68.3639C87.4505 68.3639 87.0443 68.5902 86.7491 69.0427C86.4627 69.4953 86.3148 70.2018 86.3054 71.1623C86.3054 72.1782 86.4807 72.9587 86.8321 73.5036C87.1828 74.0392 87.6496 74.3071 88.2312 74.3071C88.9333 74.3071 89.5798 74.1178 90.1707 73.7391L90.4896 74.4595C90.2493 74.7181 89.8799 74.9582 89.3813 75.1799C88.8914 75.4015 88.3603 75.5123 87.7882 75.5123C86.6056 75.5123 85.7145 75.1475 85.1141 74.4179C84.5232 73.6883 84.2274 72.7324 84.2274 71.5502ZM97.8392 75.4985C97.5348 75.4985 97.3132 75.4338 97.1747 75.3045C97.0362 75.1752 96.9669 74.9813 96.9669 74.7227V74.3486C96.7173 74.6534 96.3666 74.9259 95.9134 75.166C95.461 75.3969 95.0086 75.5123 94.5562 75.5123C93.6695 75.5123 93.0367 75.2861 92.6579 74.8335C92.2798 74.3717 92.09 73.6144 92.09 72.5615V68.6548L91.3973 68.4609V67.6712L93.7524 67.4911H93.7661L94.0432 67.6851V72.5615C94.0432 73.2357 94.1269 73.7068 94.2929 73.9746C94.4588 74.2424 94.7684 74.3764 95.2208 74.3764C95.7663 74.3764 96.2742 74.1639 96.7447 73.7391V68.6548L95.8168 68.447V67.6712L98.3241 67.4911H98.3523L98.6842 67.6851V74.501H99.4606L99.4461 75.2907C99.4093 75.2999 99.2383 75.3369 98.9338 75.4015C98.6293 75.4662 98.2642 75.4985 97.8392 75.4985ZM101.243 65.233L100.217 65.0529V64.3048L102.78 64H102.809L103.182 64.2632V74.4179L104.194 74.5287V75.36H100.273V74.5287L101.243 74.4041V65.233ZM104.995 73.1988C104.995 72.3583 105.415 71.7257 106.256 71.3009C107.105 70.876 108.2 70.659 109.539 70.6497V70.3311C109.539 69.9524 109.497 69.6569 109.414 69.4445C109.341 69.232 109.197 69.075 108.985 68.9734C108.781 68.8626 108.481 68.8072 108.084 68.8072C107.632 68.8072 107.226 68.8672 106.865 68.9873C106.505 69.0981 106.131 69.2459 105.743 69.4306L105.314 68.544C105.452 68.4239 105.683 68.2808 106.006 68.1145C106.339 67.9483 106.732 67.8051 107.184 67.6851C107.636 67.5558 108.103 67.4911 108.583 67.4911C109.294 67.4911 109.849 67.5835 110.245 67.7682C110.652 67.9529 110.943 68.2484 111.119 68.6548C111.294 69.0612 111.382 69.6061 111.382 70.2895V74.5287H112.129V75.3045C111.945 75.3507 111.682 75.3969 111.34 75.4431C110.998 75.4893 110.698 75.5123 110.44 75.5123C110.126 75.5123 109.913 75.4662 109.802 75.3738C109.701 75.2815 109.65 75.0921 109.65 74.8058V74.4318C109.401 74.7088 109.077 74.9582 108.68 75.1799C108.283 75.4015 107.835 75.5123 107.336 75.5123C106.911 75.5123 106.519 75.4246 106.159 75.2491C105.808 75.0644 105.526 74.8012 105.314 74.4595C105.102 74.1085 104.995 73.6883 104.995 73.1988ZM108.223 74.3625C108.417 74.3625 108.639 74.3071 108.888 74.1963C109.137 74.0762 109.354 73.933 109.539 73.7668V71.4948C108.708 71.4948 108.084 71.638 107.669 71.9243C107.263 72.2013 107.059 72.5615 107.059 73.0048C107.059 73.4482 107.161 73.7853 107.364 74.0162C107.576 74.2471 107.863 74.3625 108.223 74.3625ZM115.321 75.4846C114.74 75.4846 114.311 75.3507 114.034 75.0829C113.756 74.8151 113.618 74.3902 113.618 73.8084V68.7241H112.717V68.0037C112.791 67.976 112.925 67.9298 113.119 67.8652C113.313 67.7913 113.461 67.7312 113.562 67.6851C113.719 67.565 113.853 67.3572 113.964 67.0616C114.047 66.8677 114.2 66.3874 114.421 65.6209H115.529L115.585 67.6574H117.705V68.7241H115.599V72.6169C115.599 73.1341 115.612 73.499 115.64 73.7114C115.668 73.9238 115.728 74.0623 115.82 74.127C115.912 74.1824 116.074 74.2101 116.305 74.2101C116.536 74.2101 116.776 74.187 117.026 74.1408C117.275 74.0854 117.483 74.0208 117.649 73.9469L117.913 74.7227C117.654 74.9166 117.275 75.0921 116.776 75.2491C116.278 75.4061 115.793 75.4846 115.321 75.4846ZM118.649 71.5225C118.649 70.6544 118.82 69.9155 119.162 69.3059C119.513 68.6964 119.979 68.2392 120.561 67.9344C121.143 67.6204 121.776 67.4634 122.459 67.4634C123.623 67.4634 124.518 67.8236 125.147 68.544C125.784 69.2551 126.103 70.2249 126.103 71.4532C126.103 72.3306 125.927 73.0787 125.576 73.6975C125.234 74.3071 124.772 74.7643 124.191 75.069C123.618 75.3646 122.986 75.5123 122.293 75.5123C121.139 75.5123 120.242 75.1568 119.605 74.4456C118.968 73.7252 118.649 72.7509 118.649 71.5225ZM122.403 74.6119C123.448 74.6119 123.969 73.6052 123.969 71.5918C123.969 70.5389 123.844 69.74 123.595 69.1951C123.346 68.641 122.94 68.3639 122.376 68.3639C121.305 68.3639 120.769 69.3706 120.769 71.384C120.769 72.4368 120.898 73.2404 121.157 73.7945C121.424 74.3394 121.84 74.6119 122.403 74.6119ZM127.362 74.5426L128.276 74.4318V68.9734L127.389 68.7241V67.7682L129.537 67.4773H129.578L129.925 67.7543V68.0591L129.883 69.1813H129.925C129.99 68.9965 130.142 68.7703 130.382 68.5024C130.622 68.2254 130.922 67.9852 131.283 67.782C131.652 67.5696 132.049 67.4634 132.474 67.4634C132.677 67.4634 132.853 67.4911 133 67.5465V69.6246C132.723 69.4306 132.386 69.3336 131.989 69.3336C131.314 69.3336 130.729 69.5137 130.229 69.8739V74.4179L131.837 74.5426V75.36H127.362V74.5426Z" fill="black"/>
</svg>
