<?xml version="1.0" encoding="utf-8"?>
<!-- Generator: Adobe Illustrator 25.2.0, SVG Export Plug-In . SVG Version: 6.00 Build 0)  -->
<svg version="1.1" id="Layer_1" xmlns="http://www.w3.org/2000/svg" xmlns:xlink="http://www.w3.org/1999/xlink" x="0px" y="0px"
	 viewBox="0 0 63 35" style="enable-background:new 0 0 63 35;" xml:space="preserve">
<g>
	<path d="M14.1,34.5c-2.5,0-4.8-0.4-6.9-1.2c-2.1-0.9-3.8-2.1-5-3.8c-1.2-1.7-1.9-3.7-2-6c0-0.3,0.1-0.5,0.3-0.7
		c0.2-0.2,0.4-0.3,0.8-0.3h6.5c0.4,0,0.7,0.1,1,0.3c0.3,0.2,0.5,0.6,0.7,1c0.5,2.6,2.2,3.8,4.9,3.8c1.6,0,2.8-0.5,3.7-1.6
		s1.3-2.6,1.3-4.6V7.7H3.8c-0.3,0-0.6-0.1-0.9-0.3C2.7,7.1,2.6,6.8,2.6,6.5V1.6c0-0.4,0.1-0.6,0.3-0.9c0.3-0.2,0.5-0.3,0.9-0.3H27
		c0.4,0,0.6,0.1,0.9,0.3c0.3,0.2,0.4,0.5,0.4,0.9v20.1c0,2.7-0.6,5-1.8,7c-1.2,1.9-2.8,3.4-5,4.4C19.4,34,16.9,34.5,14.1,34.5z"/>
	<path d="M35.9,34c-0.3,0-0.6-0.1-0.9-0.3c-0.2-0.3-0.3-0.5-0.3-0.9V1.6c0-0.4,0.1-0.6,0.3-0.9c0.3-0.2,0.5-0.3,0.9-0.3h6
		c0.4,0,0.6,0.1,0.9,0.3C43,1,43.1,1.2,43.1,1.6v10.7L52,1.5c0.4-0.6,1-0.9,1.9-0.9h6.9c0.3,0,0.5,0.1,0.7,0.3s0.3,0.4,0.3,0.7
		c0,0.2,0,0.4-0.1,0.6L50.2,16.6l12.4,15.9c0.1,0.1,0.2,0.3,0.2,0.6s-0.1,0.5-0.3,0.7c-0.2,0.2-0.4,0.3-0.7,0.3h-7.2
		c-0.8,0-1.4-0.3-1.9-1l-9.5-11.9v11.6c0,0.4-0.1,0.6-0.3,0.9C42.7,34,42.4,34,42,34H35.9z"/>
</g>
</svg>
