<svg width="63" height="35" viewBox="0 0 63 35" fill="none" xmlns="http://www.w3.org/2000/svg">
<path d="M13.976 34.4799C11.512 34.4799 9.224 34.0639 7.112 33.2319C5.032 32.3679 3.352 31.1039 2.072 29.4399C0.824004 27.7759 0.168004 25.7759 0.104004 23.4399C0.104004 23.1519 0.200004 22.9119 0.392004 22.7199C0.584004 22.4959 0.840004 22.3839 1.16 22.3839H7.64C8.056 22.3839 8.376 22.4959 8.6 22.7199C8.856 22.9439 9.08 23.2799 9.27201 23.7279C9.784 26.2879 11.432 27.5679 14.216 27.5679C15.816 27.5679 17.048 27.0399 17.912 25.9839C18.776 24.9279 19.208 23.4079 19.208 21.4239V7.5519H3.656C3.336 7.5519 3.048 7.4399 2.792 7.2159C2.568 6.9599 2.456 6.6719 2.456 6.3519V1.5999C2.456 1.2479 2.568 0.959903 2.792 0.735904C3.048 0.511903 3.336 0.399902 3.656 0.399902H26.888C27.24 0.399902 27.528 0.511903 27.752 0.735904C28.008 0.959903 28.136 1.2479 28.136 1.5999V21.6639C28.136 24.3839 27.544 26.7039 26.36 28.6239C25.176 30.5439 23.512 31.9999 21.368 32.9919C19.224 33.9839 16.76 34.4799 13.976 34.4799Z" fill="black"/>
<path d="M35.7631 33.9999C35.4431 33.9999 35.1551 33.8879 34.8991 33.6639C34.6751 33.4079 34.5631 33.1199 34.5631 32.7999V1.5999C34.5631 1.2479 34.6751 0.959903 34.8991 0.735904C35.1551 0.511903 35.4431 0.399902 35.7631 0.399902H41.8111C42.1631 0.399902 42.4511 0.511903 42.6751 0.735904C42.8991 0.959903 43.0111 1.2479 43.0111 1.5999V12.2559L51.8911 1.3119C52.2751 0.703902 52.8991 0.399902 53.7631 0.399902H60.6751C60.9631 0.399902 61.2031 0.511903 61.3951 0.735904C61.5871 0.927903 61.6831 1.1519 61.6831 1.4079C61.6831 1.6319 61.6351 1.8239 61.5391 1.9839L50.0191 16.4799L62.4031 32.4159C62.5311 32.5439 62.5951 32.7359 62.5951 32.9919C62.5951 33.2479 62.4991 33.4879 62.3071 33.7119C62.1151 33.9039 61.8751 33.9999 61.5871 33.9999H54.4351C53.6671 33.9999 53.0271 33.6799 52.5151 33.0399L43.0111 21.1839V32.7999C43.0111 33.1519 42.8991 33.4399 42.6751 33.6639C42.4511 33.8879 42.1631 33.9999 41.8111 33.9999H35.7631Z" fill="black"/>
</svg>
