<svg xmlns="http://www.w3.org/2000/svg" viewBox="0 0 752.89 208"><title>kinder-22-5-2018</title><g id="Layer_2" data-name="Layer 2"><path d="M594.36,82H582V98h12.36a8.13,8.13,0,0,0,8.17-8A8.42,8.42,0,0,0,594.36,82Z"/><path d="M77.81,0,0,208H675.08L752.89,0ZM119,152.43V55h28V88.31L171.64,55h38.53s-15.83,19-44.34,49.86C140.3,132.46,119,152.43,119,152.43Zm55.48-.43-18.56-20.46,14.87-24.31L211.42,152ZM248,152H221V55h27Zm108,0H335l-41-48.72V152H267V55h20.36L328,103.42V55h28Zm53.48,0H375V55h34.48c29.27,0,48.88,22,48.88,48.5C458.36,130.46,438.75,152,409.48,152ZM541,82H497V92h39v23H497v10h44v27H470V55h71Zm62.21,70-21-32H582v32H555V55h39.36c20.69,0,35.4,14.68,35.4,33.88A28.85,28.85,0,0,1,611,116.49L634.39,152Z"/><path d="M410,82h-8v43h8c11.57,0,21.1-9.79,21.1-21.5S421.6,82,410,82Z"/></g></svg>