<svg width="103" height="35" viewBox="0 0 103 35" fill="none" xmlns="http://www.w3.org/2000/svg">
<g clip-path="url(#clip0_1725_42)">
<path d="M30.1891 32.416C30.2851 32.544 30.3331 32.72 30.3331 32.944C30.3331 33.232 30.2211 33.488 29.9971 33.712C29.8051 33.904 29.5651 34 29.2771 34H21.6451C21.2291 34 20.8771 33.92 20.5891 33.76C20.3011 33.568 19.9971 33.28 19.6771 32.896L10.6051 21.472V32.704C10.6051 33.056 10.4771 33.36 10.2211 33.616C9.96505 33.872 9.66105 34 9.30905 34H3.02105C2.66905 34 2.36505 33.872 2.10905 33.616C1.85305 33.36 1.72505 33.056 1.72505 32.704V1.696C1.72505 1.344 1.85305 1.04 2.10905 0.783998C2.36505 0.527998 2.66905 0.399998 3.02105 0.399998H9.30905C9.66105 0.399998 9.96505 0.527998 10.2211 0.783998C10.4771 1.04 10.6051 1.344 10.6051 1.696V11.824L19.0531 1.456C19.3091 1.136 19.5651 0.879999 19.8211 0.688C20.0771 0.495998 20.4611 0.399998 20.9731 0.399998H28.4611C28.7491 0.399998 28.9891 0.511998 29.1811 0.735999C29.4051 0.927999 29.5171 1.168 29.5171 1.456C29.5171 1.648 29.4691 1.824 29.3731 1.984L17.5171 16.48L30.1891 32.416ZM42.9019 16.816V32.704C42.9019 33.056 42.7739 33.36 42.5179 33.616C42.2619 33.872 41.9579 34 41.6059 34H35.3179C34.9659 34 34.6619 33.872 34.4059 33.616C34.1499 33.36 34.0219 33.056 34.0219 32.704V1.696C34.0219 1.344 34.1499 1.04 34.4059 0.783998C34.6619 0.527998 34.9659 0.399998 35.3179 0.399998H40.8859C41.7819 0.399998 42.4699 0.831998 42.9499 1.696L50.7259 14.992L58.5019 1.696C58.9819 0.831998 59.6699 0.399998 60.5659 0.399998H66.1339C66.4859 0.399998 66.7899 0.527998 67.0459 0.783998C67.3019 1.04 67.4299 1.344 67.4299 1.696V32.704C67.4299 33.056 67.3019 33.36 67.0459 33.616C66.7899 33.872 66.4859 34 66.1339 34H59.8459C59.4939 34 59.1899 33.872 58.9339 33.616C58.6779 33.36 58.5499 33.056 58.5499 32.704V16.816L54.0379 24.736C53.8139 25.088 53.5579 25.376 53.2699 25.6C53.0139 25.824 52.6779 25.936 52.2619 25.936H49.1899C48.7739 25.936 48.4219 25.824 48.1339 25.6C47.8779 25.376 47.6379 25.088 47.4139 24.736L42.9019 16.816ZM89.1709 0.399998C93.3309 0.399998 96.5789 1.36 98.9149 3.28C101.283 5.168 102.467 7.952 102.467 11.632C102.467 15.312 101.283 18.112 98.9149 20.032C96.5789 21.952 93.3309 22.912 89.1709 22.912H83.0269V32.704C83.0269 33.056 82.8989 33.36 82.6429 33.616C82.3869 33.872 82.0829 34 81.7309 34H75.4429C75.0909 34 74.7869 33.872 74.5309 33.616C74.2749 33.36 74.1469 33.056 74.1469 32.704V1.696C74.1469 1.344 74.2749 1.04 74.5309 0.783998C74.7869 0.527998 75.0909 0.399998 75.4429 0.399998H89.1709ZM88.9309 15.424C90.3389 15.424 91.4589 15.12 92.2909 14.512C93.1549 13.872 93.5869 12.912 93.5869 11.632C93.5869 10.352 93.1549 9.408 92.2909 8.8C91.4589 8.16 90.3389 7.84 88.9309 7.84H83.0269V15.424H88.9309Z" fill="black"/>
</g>
<defs>
<clipPath id="clip0_1725_42">
<rect width="103" height="35" fill="white"/>
</clipPath>
</defs>
</svg>
