<svg width="69" height="34" viewBox="0 0 69 34" fill="none" xmlns="http://www.w3.org/2000/svg">
<path d="M1.55999 34.0004C1.23999 34.0004 0.951985 33.8884 0.695986 33.6644C0.471985 33.4084 0.359985 33.1204 0.359985 32.8004V1.60039C0.359985 1.24839 0.471985 0.960391 0.695986 0.736392C0.951985 0.512391 1.23999 0.400391 1.55999 0.400391H6.74399C7.51199 0.400391 8.07198 0.752391 8.42398 1.45639L16.872 16.5764L25.32 1.45639C25.672 0.752391 26.232 0.400391 27 0.400391H32.136C32.488 0.400391 32.776 0.512391 33 0.736392C33.256 0.960391 33.384 1.24839 33.384 1.60039V32.8004C33.384 33.1524 33.256 33.4404 33 33.6644C32.776 33.8884 32.488 34.0004 32.136 34.0004H26.424C26.072 34.0004 25.768 33.8884 25.512 33.6644C25.288 33.4404 25.176 33.1524 25.176 32.8004V14.8004L19.8 24.8324C19.384 25.5684 18.824 25.9364 18.12 25.9364H15.624C15.208 25.9364 14.872 25.8404 14.616 25.6484C14.36 25.4564 14.136 25.1844 13.944 24.8324L8.51999 14.8004V32.8004C8.51999 33.1204 8.40799 33.4084 8.18399 33.6644C7.95999 33.8884 7.67199 34.0004 7.31998 34.0004H1.55999Z" fill="black"/>
<path d="M41.31 34.0004C40.99 34.0004 40.702 33.8884 40.446 33.6644C40.222 33.4084 40.11 33.1204 40.11 32.8004V1.60039C40.11 1.24839 40.222 0.960391 40.446 0.736392C40.702 0.512391 40.99 0.400391 41.31 0.400391H47.358C47.71 0.400391 47.998 0.512391 48.222 0.736392C48.446 0.960391 48.558 1.24839 48.558 1.60039V12.2564L57.438 1.31239C57.822 0.704391 58.446 0.400391 59.31 0.400391H66.222C66.51 0.400391 66.75 0.512391 66.942 0.736392C67.134 0.928391 67.23 1.15239 67.23 1.40839C67.23 1.63239 67.182 1.82439 67.086 1.98439L55.566 16.4804L67.95 32.4164C68.078 32.5444 68.142 32.7364 68.142 32.9924C68.142 33.2484 68.046 33.4884 67.854 33.7124C67.662 33.9044 67.422 34.0004 67.134 34.0004H59.982C59.214 34.0004 58.574 33.6804 58.062 33.0404L48.558 21.1844V32.8004C48.558 33.1524 48.446 33.4404 48.222 33.6644C47.998 33.8884 47.71 34.0004 47.358 34.0004H41.31Z" fill="black"/>
</svg>
