<svg width="63" height="35" viewBox="0 0 63 35" fill="none" xmlns="http://www.w3.org/2000/svg">
<g clip-path="url(#clip0)">
<path d="M14.8881 34.4799C11.8481 34.4799 9.24009 34.0319 7.06409 33.1359C4.88809 32.2399 3.24009 31.0719 2.12009 29.6319C1.03209 28.1599 0.45609 26.5599 0.39209 24.8319C0.39209 24.5759 0.48809 24.3519 0.68009 24.1599C0.90409 23.9359 1.16009 23.8239 1.44809 23.8239H7.49609C7.88009 23.8239 8.18409 23.9039 8.40809 24.0639C8.66409 24.1919 8.92009 24.3999 9.17609 24.6879C9.59209 25.5199 10.2641 26.2079 11.1921 26.7519C12.1201 27.2959 13.3521 27.5679 14.8881 27.5679C16.7121 27.5679 18.1041 27.2799 19.0641 26.7039C20.0241 26.1279 20.5041 25.3439 20.5041 24.3519C20.5041 23.6479 20.2481 23.0719 19.7361 22.6239C19.2561 22.1759 18.4881 21.7759 17.4321 21.4239C16.3761 21.0719 14.8081 20.6719 12.7281 20.2239C8.88809 19.4239 6.00809 18.2559 4.08809 16.7199C2.20009 15.1519 1.25609 12.9279 1.25609 10.0479C1.25609 8.09592 1.80009 6.35192 2.88809 4.81592C3.97609 3.27992 5.52809 2.07992 7.54409 1.21592C9.56009 0.351922 11.9121 -0.0800781 14.6001 -0.0800781C17.3841 -0.0800781 19.8001 0.399922 21.8481 1.35992C23.8961 2.31992 25.4481 3.53592 26.5041 5.00792C27.5921 6.44792 28.1681 7.87192 28.2321 9.27992C28.2321 9.56792 28.1361 9.80792 27.9441 9.99992C27.7521 10.1919 27.5121 10.2879 27.2241 10.2879H20.8881C20.5041 10.2879 20.1841 10.2239 19.9281 10.0959C19.7041 9.96792 19.4961 9.75992 19.3041 9.47192C19.1121 8.73592 18.5841 8.11192 17.7201 7.59992C16.8881 7.08792 15.8481 6.83192 14.6001 6.83192C13.1601 6.83192 12.0561 7.08792 11.2881 7.59992C10.5201 8.11192 10.1361 8.86392 10.1361 9.85592C10.1361 10.5279 10.3441 11.0879 10.7601 11.5359C11.2081 11.9839 11.9121 12.3999 12.8721 12.7839C13.8641 13.1359 15.2721 13.5039 17.0961 13.8879C20.0721 14.4319 22.4401 15.1199 24.2001 15.9519C25.9921 16.7519 27.3041 17.8079 28.1361 19.1199C28.9681 20.3999 29.3841 22.0159 29.3841 23.9679C29.3841 26.1119 28.7601 27.9839 27.5121 29.5839C26.2961 31.1519 24.5841 32.3679 22.3761 33.2319C20.2001 34.0639 17.7041 34.4799 14.8881 34.4799Z" fill="black"/>
<path d="M35.3882 33.9999C35.0682 33.9999 34.7802 33.8879 34.5242 33.6639C34.3002 33.4079 34.1882 33.1199 34.1882 32.7999V1.59992C34.1882 1.24792 34.3002 0.959922 34.5242 0.735923C34.7802 0.511922 35.0682 0.399921 35.3882 0.399921H41.4362C41.7882 0.399921 42.0762 0.511922 42.3002 0.735923C42.5242 0.959922 42.6362 1.24792 42.6362 1.59992V12.2559L51.5162 1.31192C51.9002 0.703921 52.5242 0.399921 53.3882 0.399921H60.3002C60.5882 0.399921 60.8282 0.511922 61.0202 0.735923C61.2122 0.927922 61.3082 1.15192 61.3082 1.40792C61.3082 1.63192 61.2602 1.82392 61.1642 1.98392L49.6442 16.4799L62.0282 32.4159C62.1562 32.5439 62.2202 32.7359 62.2202 32.9919C62.2202 33.2479 62.1242 33.4879 61.9322 33.7119C61.7402 33.9039 61.5002 33.9999 61.2122 33.9999H54.0602C53.2922 33.9999 52.6522 33.6799 52.1402 33.0399L42.6362 21.1839V32.7999C42.6362 33.1519 42.5242 33.4399 42.3002 33.6639C42.0762 33.8879 41.7882 33.9999 41.4362 33.9999H35.3882Z" fill="black"/>
</g>
<defs>
<clipPath id="clip0">
<rect width="63" height="35" fill="white"/>
</clipPath>
</defs>
</svg>
