<svg width="117" height="68" viewBox="0 0 117 68" fill="none" xmlns="http://www.w3.org/2000/svg">
<rect x="89.4705" width="27.5294" height="30.9706" fill="#222222"/>
<rect y="36.2607" width="20.647" height="30.9706" fill="#222222"/>
<rect width="82.5882" height="30.9706" fill="#FFD300"/>
<path d="M12.4846 22.5938C11.677 22.5938 10.8506 22.455 10.0052 22.1775C9.17242 21.8872 8.40906 21.4393 7.71509 20.8337L9.56988 18.6004C10.0367 18.9536 10.5351 19.2439 11.0651 19.471C11.595 19.6855 12.1439 19.7927 12.7117 19.7927C13.2038 19.7927 13.5507 19.7233 13.7526 19.5845C13.9671 19.4457 14.0744 19.2754 14.0744 19.0735C14.0744 18.8969 14.0302 18.7518 13.9419 18.6382C13.8662 18.512 13.7526 18.4048 13.6012 18.3165C13.4498 18.2155 13.2605 18.1209 13.0334 18.0326C12.8189 17.9442 12.5729 17.8433 12.2953 17.7297L10.7622 17.0862C10.409 16.9601 10.0746 16.796 9.75915 16.5941C9.4437 16.3796 9.16612 16.1336 8.92638 15.856C8.69926 15.5658 8.51631 15.2378 8.37751 14.8718C8.23872 14.5059 8.16932 14.1022 8.16932 13.6605C8.16932 13.1306 8.28288 12.6385 8.51 12.1843C8.73712 11.7174 9.05256 11.3137 9.45632 10.973C9.8727 10.6197 10.3648 10.3421 10.9326 10.1402C11.513 9.93834 12.1565 9.8374 12.8631 9.8374C13.5949 9.8374 14.3267 9.96989 15.0586 10.2349C15.7904 10.4998 16.4591 10.9162 17.0648 11.484L15.4371 13.5281C14.9955 13.2379 14.5665 13.017 14.1501 12.8656C13.7463 12.7142 13.2542 12.6385 12.6738 12.6385C12.3079 12.6385 12.0114 12.7079 11.7843 12.8467C11.5698 12.9729 11.4625 13.1811 11.4625 13.4713C11.4625 13.6101 11.5067 13.7363 11.595 13.8498C11.6833 13.9508 11.8095 14.0454 11.9735 14.1337C12.1376 14.222 12.3395 14.3104 12.5792 14.3987C12.8189 14.487 13.0902 14.5879 13.393 14.7015L14.8125 15.2882C15.6453 15.591 16.2825 16.0137 16.7241 16.5563C17.1783 17.0989 17.4054 17.7991 17.4054 18.6571C17.4054 19.1745 17.2982 19.6729 17.0837 20.1523C16.8692 20.6318 16.5537 21.0545 16.1374 21.4204C15.721 21.7737 15.2037 22.0576 14.5854 22.2721C13.9797 22.4866 13.2795 22.5938 12.4846 22.5938Z" fill="#222222"/>
<path d="M22.2811 22.3667V12.7899H18.7418V10.0645H29.0757V12.7899H25.5364V22.3667H22.2811Z" fill="#222222"/>
<path d="M30.677 22.3667V10.0645H35.2572C35.9133 10.0645 36.5379 10.1276 37.1309 10.2538C37.7366 10.38 38.2602 10.5945 38.7018 10.8973C39.1561 11.2001 39.5157 11.6102 39.7806 12.1275C40.0456 12.6322 40.1781 13.2694 40.1781 14.0391C40.1781 14.9223 39.9951 15.6541 39.6292 16.2345C39.2759 16.815 38.7965 17.2692 38.1908 17.5973L40.8595 22.3667H37.2256L35.1058 18.2407H33.9324V22.3667H30.677ZM33.9324 15.6668H35.0301C36.3423 15.6668 36.9985 15.1242 36.9985 14.0391C36.9985 13.5091 36.8281 13.1432 36.4874 12.9413C36.1594 12.7395 35.6736 12.6385 35.0301 12.6385H33.9324V15.6668Z" fill="#222222"/>
<path d="M42.5176 22.3667V10.0645H50.8831V12.7899H45.7729V14.7204H50.126V17.4458H45.7729V19.6413H51.0723V22.3667H42.5176Z" fill="#222222"/>
<path d="M53.8661 22.3667V10.0645H62.2316V12.7899H57.1214V14.7204H61.4745V17.4458H57.1214V19.6413H62.4208V22.3667H53.8661Z" fill="#222222"/>
<path d="M64.836 22.3667V10.0645H69.4541C70.1102 10.0645 70.7348 10.1339 71.3278 10.2727C71.9334 10.3989 72.4571 10.626 72.8987 10.9541C73.3529 11.2695 73.7125 11.6922 73.9775 12.2221C74.2425 12.7395 74.3749 13.383 74.3749 14.1526C74.3749 14.9097 74.2362 15.5595 73.9586 16.1021C73.6936 16.6446 73.334 17.0925 72.8798 17.4458C72.4255 17.7865 71.9019 18.0452 71.3089 18.2218C70.7158 18.3859 70.0976 18.4679 69.4541 18.4679H68.0914V22.3667H64.836ZM68.0914 15.8939H69.3027C69.9462 15.8939 70.4193 15.7425 70.7221 15.4396C71.0376 15.1368 71.1953 14.7078 71.1953 14.1526C71.1953 13.5975 71.0313 13.2063 70.7032 12.9792C70.3752 12.7521 69.9083 12.6385 69.3027 12.6385H68.0914V15.8939Z" fill="#222222"/>
<rect x="27.5294" y="36.2607" width="89.4705" height="30.9706" fill="#FFD300"/>
<path d="M40.9414 58.8541C40.1465 58.8541 39.3957 58.7279 38.6891 58.4756C37.9952 58.2106 37.3832 57.8194 36.8533 57.3021C36.336 56.7722 35.9259 56.1161 35.6231 55.3338C35.3202 54.5389 35.1688 53.6178 35.1688 52.5705C35.1688 51.5359 35.3202 50.6148 35.6231 49.8072C35.9259 48.9997 36.336 48.3247 36.8533 47.7821C37.3832 47.2269 38.0015 46.8106 38.7081 46.533C39.4147 46.2428 40.1654 46.0977 40.9603 46.0977C41.7931 46.0977 42.5123 46.2617 43.1179 46.5897C43.7236 46.9052 44.2283 47.2711 44.6321 47.6875L42.853 49.6937C42.6006 49.4413 42.3293 49.2458 42.0391 49.107C41.7615 48.9682 41.4019 48.8988 40.9603 48.8988C40.6196 48.8988 40.2979 48.9808 39.9951 49.1448C39.7049 49.3088 39.4462 49.5423 39.2191 49.8451C39.0046 50.1479 38.8342 50.5201 38.7081 50.9618C38.5819 51.4034 38.5188 51.9018 38.5188 52.4569C38.5188 53.6178 38.7333 54.5073 39.1623 55.1256C39.5913 55.7438 40.2474 56.053 41.1307 56.053C41.2821 56.053 41.4335 56.034 41.5849 55.9962C41.7363 55.9583 41.8625 55.9016 41.9634 55.8259V54.1225H40.4304V51.4728H44.8592V57.34C44.6447 57.5292 44.3923 57.7185 44.1021 57.9078C43.8245 58.0844 43.5154 58.2421 43.1747 58.3809C42.834 58.5197 42.4744 58.6333 42.0959 58.7216C41.7174 58.8099 41.3325 58.8541 40.9414 58.8541Z" fill="#222222"/>
<path d="M47.3501 58.627V46.3248H55.7156V49.0502H50.6054V50.9807H54.9585V53.7061H50.6054V55.9016H55.9048V58.627H47.3501Z" fill="#222222"/>
<path d="M58.32 58.627V46.3248H61.8593C62.7425 46.3248 63.55 46.4383 64.2819 46.6655C65.0137 46.8926 65.6446 47.2522 66.1745 47.7443C66.7044 48.2363 67.1145 48.8672 67.4047 49.6369C67.7075 50.4066 67.859 51.334 67.859 52.4191C67.859 53.5042 67.7138 54.4379 67.4236 55.2202C67.1334 56.0025 66.7234 56.646 66.1934 57.1507C65.6761 57.6554 65.0641 58.0276 64.3576 58.2674C63.651 58.5071 62.8813 58.627 62.0485 58.627H58.32ZM61.5754 56.0151H61.6889C62.0801 56.0151 62.446 55.9646 62.7867 55.8637C63.14 55.7501 63.4428 55.5609 63.6951 55.2959C63.9475 55.0309 64.1494 54.665 64.3008 54.1982C64.4522 53.7313 64.5279 53.1383 64.5279 52.4191C64.5279 51.6999 64.4522 51.1132 64.3008 50.6589C64.1494 50.2047 63.9475 49.8514 63.6951 49.5991C63.4428 49.3467 63.14 49.1764 62.7867 49.088C62.446 48.9871 62.0801 48.9366 61.6889 48.9366H61.5754V56.0151Z" fill="#222222"/>
<path d="M69.7064 58.627V55.9016H72.5075V49.0502H69.7064V46.3248H78.5639V49.0502H75.7628V55.9016H78.5639V58.627H69.7064Z" fill="#222222"/>
<path d="M86.5814 58.8541C85.8117 58.8541 85.0735 58.7279 84.367 58.4756C83.673 58.2106 83.0547 57.8194 82.5122 57.3021C81.9822 56.7722 81.5532 56.1161 81.2252 55.3338C80.9097 54.5389 80.752 53.6178 80.752 52.5705C80.752 51.5359 80.9097 50.6211 81.2252 49.8262C81.5406 49.0186 81.9696 48.3436 82.5122 47.801C83.0547 47.2459 83.6919 46.8232 84.4237 46.533C85.1556 46.2428 85.9379 46.0977 86.7706 46.0977C87.5655 46.0977 88.2847 46.2617 88.9282 46.5897C89.5717 46.9052 90.1143 47.2711 90.5559 47.6875L88.7768 49.6937C88.4866 49.4413 88.1838 49.2458 87.8684 49.107C87.5529 48.9682 87.187 48.8988 86.7706 48.8988C86.3921 48.8988 86.0388 48.9808 85.7107 49.1448C85.3827 49.3088 85.0988 49.5423 84.859 49.8451C84.6193 50.1479 84.43 50.5201 84.2913 50.9618C84.1525 51.4034 84.0831 51.9018 84.0831 52.4569C84.0831 53.6178 84.348 54.5073 84.878 55.1256C85.4079 55.7438 86.0893 56.053 86.922 56.053C87.3258 56.053 87.6917 55.9646 88.0198 55.788C88.3604 55.5987 88.6633 55.359 88.9282 55.0688L90.7073 57.0371C90.19 57.6428 89.578 58.097 88.8715 58.3999C88.1775 58.7027 87.4141 58.8541 86.5814 58.8541Z" fill="#222222"/>
<path d="M92.2519 58.627V46.3248H95.5072V50.905H98.157V46.3248H101.412V58.627H98.157V53.7439H95.5072V58.627H92.2519Z" fill="#222222"/>
<path d="M106.553 58.627V49.0502H103.014V46.3248H113.348V49.0502H109.808V58.627H106.553Z" fill="#222222"/>
</svg>
