<svg width="62" height="34" viewBox="0 0 62 34" fill="none" xmlns="http://www.w3.org/2000/svg">
<path d="M10.9521 34.0004C10.6321 34.0004 10.3441 33.8884 10.0881 33.6644C9.86406 33.4084 9.75206 33.1204 9.75206 32.8004V7.93639H1.20806C0.888057 7.93639 0.600057 7.82439 0.344057 7.60039C0.120057 7.34439 0.00805664 7.05639 0.00805664 6.73639V1.60039C0.00805664 1.24839 0.120057 0.960391 0.344057 0.736392C0.600057 0.512391 0.888057 0.400391 1.20806 0.400391H27.0321C27.3841 0.400391 27.6721 0.512391 27.8961 0.736392C28.1201 0.960391 28.2321 1.24839 28.2321 1.60039V6.73639C28.2321 7.08839 28.1201 7.37639 27.8961 7.60039C27.6721 7.82439 27.3841 7.93639 27.0321 7.93639H18.4881V32.8004C18.4881 33.1204 18.3761 33.4084 18.1521 33.6644C17.9281 33.8884 17.6401 34.0004 17.2881 34.0004H10.9521Z" fill="black"/>
<path d="M33.7944 34.0004C33.4424 34.0004 33.1544 33.8884 32.9304 33.6644C32.7064 33.4404 32.5944 33.1524 32.5944 32.8004V1.60039C32.5944 1.24839 32.7064 0.960391 32.9304 0.736392C33.1864 0.512391 33.4744 0.400391 33.7944 0.400391H39.9864C40.3384 0.400391 40.6264 0.512391 40.8504 0.736392C41.1064 0.960391 41.2344 1.24839 41.2344 1.60039V13.1684H53.0424V1.60039C53.0424 1.24839 53.1544 0.960391 53.3784 0.736392C53.6024 0.512391 53.8904 0.400391 54.2424 0.400391H60.4344C60.7864 0.400391 61.0744 0.512391 61.2984 0.736392C61.5224 0.960391 61.6344 1.24839 61.6344 1.60039V32.8004C61.6344 33.1524 61.5224 33.4404 61.2984 33.6644C61.0744 33.8884 60.7864 34.0004 60.4344 34.0004H54.2424C53.8904 34.0004 53.6024 33.8884 53.3784 33.6644C53.1544 33.4404 53.0424 33.1524 53.0424 32.8004V20.8484H41.2344V32.8004C41.2344 33.1524 41.1064 33.4404 40.8504 33.6644C40.6264 33.8884 40.3384 34.0004 39.9864 34.0004H33.7944Z" fill="black"/>
</svg>
