<svg width="61" height="35" viewBox="0 0 61 35" fill="none" xmlns="http://www.w3.org/2000/svg">
<g clip-path="url(#clip0_1739_42)">
<path d="M27.0637 0.399998C27.4157 0.399998 27.7197 0.527998 27.9757 0.783998C28.2317 1.04 28.3597 1.344 28.3597 1.696V6.784C28.3597 7.136 28.2317 7.44 27.9757 7.696C27.7197 7.952 27.4157 8.08 27.0637 8.08H18.6157V32.704C18.6157 33.056 18.4877 33.36 18.2317 33.616C17.9757 33.872 17.6717 34 17.3197 34H11.0317C10.6797 34 10.3757 33.872 10.1197 33.616C9.86374 33.36 9.73574 33.056 9.73574 32.704V8.08H1.28774C0.935738 8.08 0.631738 7.952 0.375738 7.696C0.119738 7.44 -0.00826165 7.136 -0.00826165 6.784V1.696C-0.00826165 1.344 0.119738 1.04 0.375738 0.783998C0.631738 0.527998 0.935738 0.399998 1.28774 0.399998H27.0637ZM59.793 0.399998C60.145 0.399998 60.449 0.527998 60.705 0.783998C60.961 1.04 61.089 1.344 61.089 1.696V32.704C61.089 33.056 60.961 33.36 60.705 33.616C60.449 33.872 60.145 34 59.793 34H53.505C53.153 34 52.849 33.872 52.593 33.616C52.337 33.36 52.209 33.056 52.209 32.704V20.944H41.553V32.704C41.553 33.056 41.425 33.36 41.169 33.616C40.913 33.872 40.609 34 40.257 34H33.969C33.617 34 33.313 33.888 33.057 33.664C32.801 33.408 32.673 33.088 32.673 32.704V1.696C32.673 1.344 32.801 1.04 33.057 0.783998C33.313 0.527998 33.617 0.399998 33.969 0.399998H40.257C40.609 0.399998 40.913 0.527998 41.169 0.783998C41.425 1.04 41.553 1.344 41.553 1.696V13.264H52.209V1.696C52.209 1.344 52.337 1.04 52.593 0.783998C52.849 0.527998 53.153 0.399998 53.505 0.399998H59.793Z" fill="black"/>
</g>
<defs>
<clipPath id="clip0_1739_42">
<rect width="61" height="35" fill="white"/>
</clipPath>
</defs>
</svg>
