<?xml version="1.0" encoding="UTF-8"?>
<svg width="111px" height="54px" viewBox="0 0 111 54" version="1.1" xmlns="http://www.w3.org/2000/svg" xmlns:xlink="http://www.w3.org/1999/xlink">
    <!-- Generator: Sketch 53.2 (72643) - https://sketchapp.com -->
    <title>logo-xel2</title>
    <desc>Created with Sketch.</desc>
    <g id="Page-1" stroke="none" stroke-width="1" fill="none" fill-rule="evenodd">
        <g id="logo-xel2" transform="translate(0.000000, -0.001022)" fill="#373B4D" fill-rule="nonzero">
            <path d="M42.07,46.4510216 C48.38,41.5210216 52.45,33.2410216 52.45,25.8710216 C52.4156909,18.9596655 49.6310078,12.3463797 44.7111546,7.49219965 C39.7913014,2.63801956 33.1411931,-0.0575450249 26.23,0.00102155801 C19.3170821,-0.0602186413 12.6643975,2.63416259 7.74237453,7.48863207 C2.82035155,12.3431016 0.0342946936,18.9579175 0,25.8710216 C6.54470957e-05,29.9871447 0.994978585,34.0422734 2.9,37.6910216 C2.59,37.9310216 2.25,38.1510216 1.9,38.3910216 L3.09,39.6910216 C3.34006983,39.5814552 3.58378713,39.4579273 3.82,39.3210216 C5.92775806,42.7415297 8.7995555,45.6270187 12.21,47.7510216 L12.21,47.8210216 L8.59,53.5410216 L10.86,51.7110216 L10.53,54.0010216 L13.91,48.8210216 L15,47.1810216 L16.57,44.7710216 L19.07,44.6510216 L22.07,41.0510216 L30.95,38.8110216 L35,41.7410216 L36.55,46.5710216 L39.65,45.7510216 L40.65,47.4810216 L43.94,53.4110216 L44.61,50.7310216 L42.07,46.4510216 Z M26.37,37.6310216 C25.734141,35.4276922 25.2957431,33.1721183 25.06,30.8910216 C27.0333691,31.3681137 29.0385669,31.7023133 31.06,31.8910216 C32.21,31.9910216 33.39,32.0410216 34.57,32.0410216 L35,32.0410216 C34.7888832,33.6281849 34.481652,35.2010753 34.08,36.7510216 C33.96,37.2210216 33.82,37.6610216 33.7,38.1210216 L31.39,36.3710216 L26.37,37.6310216 Z M38,44.2310216 L36.65,40.3010216 L36,39.8410216 C36.31,39.3010216 36.58,38.7410216 36.87,38.1810216 C37.893713,36.1102142 38.765998,33.9679359 39.48,31.7710216 C39.77,30.8910216 40.02,30.0210216 40.26,29.1310216 C40.79,28.3010216 41.26,27.4310216 41.73,26.5510216 C42.1845508,28.0934747 42.7424802,29.6035592 43.4,31.0710216 C43.7,31.7810216 44.04,32.4610216 44.4,33.1410216 C44.45,32.5810216 44.5,32.0210216 44.53,31.4610216 C44.53,31.2610216 44.45,31.0610216 44.4,30.8410216 C43.9863929,28.9173233 43.7189626,26.965082 43.6,25.0010216 C43.6,24.2210216 43.54,23.4410216 43.54,22.6410216 L43.54,22.6410216 L43.84,21.8210216 C43.77,21.4310216 43.67,21.0310216 43.59,20.6410216 C43.1852952,18.8293585 42.6539909,17.0483197 42,15.3110216 L42,15.3110216 L42,15.3110216 C42.0072731,15.2679934 42.0072731,15.2240497 42,15.1810216 C41.42,14.9210216 40.84,14.6910216 40.25,14.4710216 C39.25,14.1110216 38.34,13.7910216 37.35,13.4710216 C36.36,13.1510216 35.44,12.9510216 34.47,12.7610216 C34.11,12.9510216 33.75,13.1310216 33.41,13.3410216 C33.3069263,13.3306623 33.2030737,13.3306623 33.1,13.3410216 C32.95,13.3410216 32.8,13.3410216 32.64,13.3410216 L31.18,13.2210216 C30.68,13.2210216 30.18,13.1710216 29.68,13.1710216 L29.46,13.1710216 C29.25,14.3210216 28.98,15.4610216 28.67,16.5710216 L28.4,17.0010216 C28.08,18.1510216 27.68,19.2510216 27.26,20.3510216 L27.26,20.3510216 L26.71,20.9110216 C26.19,21.4510216 25.64,21.9910216 25.08,22.5210216 C24.94,22.6310216 24.84,22.7410216 24.7,22.8510216 C23.83,23.6510216 22.95,24.3810216 22.01,25.0910216 C21.07,25.8010216 20.29,26.3310216 19.4,26.9010216 C19.28,26.9710216 19.2,27.0410216 19.08,27.1010216 L19.67,28.1010216 C19.78,28.4910216 19.88,28.8710216 19.98,29.2510216 C20.03,29.4810216 20.12,29.7210216 20.19,29.9610216 C20.32,30.4710216 20.49,30.9610216 20.65,31.4710216 C21.410897,33.8325938 22.3433811,36.1353948 23.44,38.3610216 L20.88,39.0010216 L18.26,42.0010216 L15.63,42.2010216 L13.3,46.0010216 C10.1208065,44.0094292 7.4527634,41.3002866 5.51,38.0910216 C8.05140947,35.9092279 9.68506666,32.8559298 10.09,29.5310216 C10.6,29.0910216 11.09,28.6410216 11.59,28.1510216 C12.3117058,27.4827708 12.999246,26.7785428 13.65,26.0410216 C14.54,25.0410216 15.38,24.0410216 16.16,23.0410216 L16.62,23.6010216 C17.23,24.3810216 17.81,25.1710216 18.38,26.0010216 C18.63,25.8510216 18.87,25.6810216 19.13,25.5310216 C19.72,25.1410216 20.32,24.7210216 20.88,24.3110216 C21.26,24.0410216 21.61,23.7710216 21.96,23.5010216 C23.1472344,22.5638214 24.2822664,21.5623226 25.36,20.5010216 L25.52,20.3510216 C25.69,20.1810216 25.84,20.0110216 26,19.8410216 L26.11,19.7210216 C26.32,19.1810216 26.52,18.6010216 26.73,18.0410216 C27.269607,16.4230566 27.6940011,14.7689223 28,13.0910216 C28.07,12.7210216 28.14,12.3410216 28.2,11.9510216 C28.2,11.7710216 28.26,11.6010216 28.29,11.4110216 C28.32,11.2210216 28.17,11.2810216 28.12,11.2110216 C27.42,10.3510216 26.69,9.53102156 25.9,8.72102156 C25.55,8.35102156 25.19,7.99102156 24.81,7.65102156 L24.73,7.65102156 C24.08,8.11102156 23.4,8.54102156 22.73,8.92102156 C22.55,9.04102156 22.36,9.14102156 22.17,9.26102156 C21.98,9.38102156 21.51,9.64102156 21.17,9.82102156 C20.83,10.0010216 20.42,10.2110216 20.01,10.4110216 C19.6,10.6110216 19.01,10.8710216 18.58,11.0810216 L18.58,11.0810216 C18.41,10.9410216 18.12,10.7710216 17.95,10.6410216 C15.4682212,11.0112694 13.1157059,11.9866189 11.1,13.4810216 C10.89,13.7710216 10.69,14.0210216 10.48,14.3010216 C6.24,20.2110216 6.48,24.8410216 6.48,24.8410216 C6.48,26.3210216 6.48,27.6210216 6.48,28.8410216 C6.48,29.2910216 6.48,29.7210216 6.48,30.1610216 C6.48,30.6010216 6.48,30.7310216 6.48,31.0210216 C6.47279859,31.3120942 6.44942924,31.6025419 6.41,31.8910216 C6.26335019,33.4987922 5.61634357,35.0201321 4.56,36.2410216 C2.92557555,33.0275829 2.06598217,29.4761951 2.05,25.8710216 C2.08435606,19.4988224 4.65145424,13.4018746 9.18539496,8.9242095 C13.7193357,4.44654442 19.8478687,1.95579188 26.22,2.00102156 C32.5921313,1.95579188 38.7206643,4.44654442 43.254605,8.9242095 C47.7885458,13.4018746 50.3556439,19.4988224 50.39,25.8710216 C50.3762994,33.2590871 46.9237475,40.2196389 41.05,44.7010216 L40.4,43.5510216 L38,44.2310216 Z M7.76,30.3310216 C9.01674356,28.3721235 10.1008241,26.3076861 11,24.1610216 C11.17,23.7610216 11.48,22.9410216 11.48,22.9410216 C12.173377,22.5484408 12.9077817,22.2332169 13.67,22.0010216 C14.4928764,21.7552752 15.3363231,21.5845776 16.19,21.4910216 C16.19,21.4910216 15.87,21.9710216 15.7,22.2010216 C15.53,22.4310216 15.22,22.8510216 14.98,23.1510216 C14.34,23.9810216 13.65,24.7910216 12.98,25.5710216 C12.31,26.3510216 11.76,26.8610216 11.05,27.5710216 C10.0086369,28.555002 8.91005678,29.4766072 7.76,30.3310216 L7.76,30.3310216 Z M78.5,16.5910216 C79.5,16.5910216 80.95,16.6510216 80.95,16.8510216 C80.83,16.8510216 79.95,18.4910216 79.25,19.6310216 C78.7771796,20.1935803 78.3586478,20.7996143 78,21.4410216 L76.55,23.8110216 C76.389065,24.0045431 76.2882583,24.2409173 76.26,24.4910216 C76.26,24.6010216 76.38,24.7410216 76.43,24.8410216 L80.04,30.2910216 C80.4,31.1610216 81.39,32.1910216 81.77,33.1410216 C81.77,33.2610216 81.7,33.2710216 81.59,33.3210216 C80.15,33.4410216 79.34,33.4410216 77.64,33.4410216 C77.21,33.4410216 76.79,33.3810216 76.64,33.1910216 L73.88,29.0010216 C73.88,28.9510216 73.74,28.8610216 73.71,28.8610216 C73.27,28.8610216 71.58,31.9110216 70.98,32.8610216 C70.73,33.3010216 69.98,33.3910216 69.33,33.3910216 C68.97,33.3910216 68.59,33.3910216 67.73,33.3910216 C66.87,33.3910216 65.73,33.3910216 65.73,33.2010216 C65.7075631,33.0298192 65.7465376,32.8562057 65.84,32.7110216 L68.58,28.4610216 C68.6079015,28.3768741 68.669461,28.3080723 68.75,28.2710216 L70.93,24.7710216 C70.9483585,24.5815427 70.90258,24.3913856 70.8,24.2310216 C70.13,23.1810216 69.57,22.1310216 68.89,21.0810216 C68.51,20.4710216 66.28,17.5110216 66.28,17.0110216 C66.28,16.9610216 66.28,16.8110216 66.45,16.8110216 L71,16.8110216 C71.1073168,16.8029724 71.2118171,16.8477582 71.28,16.9310216 L73.16,19.7610216 C73.16,19.9310216 73.33,20.1610216 73.48,20.1610216 C73.84,20.1610216 74.83,18.2710216 75,17.9810216 C75.6,16.8310216 76.11,16.6910216 76.89,16.6910216 L78.5,16.6910216 L78.5,16.5910216 Z M94.71,23.3510216 C94.83,23.3510216 94.97,23.6410216 94.97,23.7210216 C94.97,24.3310216 94.91,25.7910216 94.9,26.7210216 L94.71,26.8510216 C93.11,26.8510216 90.86,26.8510216 90.21,26.9210216 C90.02,26.9210216 90,27.2310216 90,27.6310216 C90,28.0310216 90,29.0210216 90,29.7010216 C90.19,30.0210216 94,29.8310216 95.23,30.0010216 C95.42,30.1210216 95.44,30.3610216 95.44,30.7110216 C95.44,31.3910216 95.37,32.0510216 95.37,32.7110216 C95.37,33.3710216 94.57,33.5410216 93.48,33.5410216 C91.16,33.5410216 89.1,33.4710216 86.9,33.4710216 L86.4,33.4710216 C86.08,33.4710216 85.72,33.4010216 85.62,33.1110216 C85.62,32.2710216 85.62,31.5210216 85.62,30.9110216 C85.5890368,30.5425905 85.6473509,30.1721248 85.79,29.8310216 C85.79,29.8310216 85.73,29.7610216 85.69,29.7610216 C85.69,28.7110216 85.69,27.6810216 85.69,26.5410216 C85.69,24.3410216 85.83,18.3510216 85.83,17.6210216 C85.83,17.4810216 85.83,17.3610216 85.83,17.2110216 L86.06,17.0310216 C87.41,17.0310216 88.81,16.9210216 90.17,16.9210216 L92.44,16.9210216 C93.3808921,16.842725 94.328212,16.9067787 95.25,17.1110216 L95.32,17.6710216 C95.32,17.9910216 95.25,19.6710216 95.25,19.9910216 C95.25,20.5410216 94.25,20.5810216 92.25,20.5810216 L91.25,20.5810216 L90.14,20.5810216 C90.14,21.1410216 90.04,21.7310216 90.04,22.5110216 C90.04,22.5610216 90.04,22.5810216 90.04,22.6110216 C90.04,22.9210216 90.04,23.2710216 90.42,23.2710216 L94.71,23.3510216 Z M104.41,17.1410216 C104.41,17.1910216 104.48,17.9810216 104.51,18.3010216 C104.51,18.4210216 104.51,19.1310216 104.51,19.6310216 C104.51,20.8310216 104.72,26.7910216 104.72,29.7710216 L104.79,29.8210216 L109.53,29.8210216 C109.71,29.8210216 109.88,29.8710216 109.88,30.2310216 C109.88,30.9710216 110.02,31.7510216 110.02,32.8810216 C110.02,33.1410216 109.92,33.2110216 109.78,33.2110216 C107.67,33.2110216 106.97,33.3110216 103.68,33.3110216 C102.14,33.3110216 100.46,33.2410216 100.46,33.0510216 C100.39,27.8910216 100.15,22.7610216 100.15,17.6110216 C100.15,17.3610216 100.22,17.0210216 100.46,17.0210216 L104.29,17.0210216 L104.41,17.1410216 Z" id="Shape"></path>
        </g>
    </g>
</svg>